solid Default
  facet normal 1.000000e+00 0.000000e+00 0.000000e+00
    outer loop
      vertex 6.000000e+01 -8.000000e+00 2.000000e+00
      vertex 6.000000e+01 -6.000000e+00 2.000000e+00
      vertex 6.000000e+01 -8.000000e+00 9.000000e+00
    endloop
  endfacet
  facet normal 1.000000e+00 0.000000e+00 0.000000e+00
    outer loop
      vertex 6.000000e+01 -8.000000e+00 9.000000e+00
      vertex 6.000000e+01 -6.000000e+00 2.000000e+00
      vertex 6.000000e+01 -6.000000e+00 9.000000e+00
    endloop
  endfacet
  facet normal 0.000000e+00 -1.000000e+00 6.123234e-17
    outer loop
      vertex 5.300000e+01 -8.000000e+00 2.000000e+00
      vertex 6.000000e+01 -8.000000e+00 2.000000e+00
      vertex 5.300000e+01 -8.000000e+00 9.000000e+00
    endloop
  endfacet
  facet normal 0.000000e+00 -1.000000e+00 6.123234e-17
    outer loop
      vertex 5.300000e+01 -8.000000e+00 9.000000e+00
      vertex 6.000000e+01 -8.000000e+00 2.000000e+00
      vertex 6.000000e+01 -8.000000e+00 9.000000e+00
    endloop
  endfacet
  facet normal -1.000000e+00 0.000000e+00 0.000000e+00
    outer loop
      vertex 5.300000e+01 -6.000000e+00 2.000000e+00
      vertex 5.300000e+01 -8.000000e+00 2.000000e+00
      vertex 5.300000e+01 -6.000000e+00 9.000000e+00
    endloop
  endfacet
  facet normal -1.000000e+00 0.000000e+00 0.000000e+00
    outer loop
      vertex 5.300000e+01 -6.000000e+00 9.000000e+00
      vertex 5.300000e+01 -8.000000e+00 2.000000e+00
      vertex 5.300000e+01 -8.000000e+00 9.000000e+00
    endloop
  endfacet
  facet normal 0.000000e+00 1.000000e+00 -6.123234e-17
    outer loop
      vertex 6.000000e+01 -6.000000e+00 2.000000e+00
      vertex 5.300000e+01 -6.000000e+00 2.000000e+00
      vertex 6.000000e+01 -6.000000e+00 9.000000e+00
    endloop
  endfacet
  facet normal 0.000000e+00 1.000000e+00 -6.123234e-17
    outer loop
      vertex 6.000000e+01 -6.000000e+00 9.000000e+00
      vertex 5.300000e+01 -6.000000e+00 2.000000e+00
      vertex 5.300000e+01 -6.000000e+00 9.000000e+00
    endloop
  endfacet
  facet normal 0.000000e+00 6.123234e-17 1.000000e+00
    outer loop
      vertex 5.300000e+01 -6.000000e+00 9.000000e+00
      vertex 5.300000e+01 -8.000000e+00 9.000000e+00
      vertex 6.000000e+01 -6.000000e+00 9.000000e+00
    endloop
  endfacet
  facet normal 0.000000e+00 6.123234e-17 1.000000e+00
    outer loop
      vertex 6.000000e+01 -6.000000e+00 9.000000e+00
      vertex 5.300000e+01 -8.000000e+00 9.000000e+00
      vertex 6.000000e+01 -8.000000e+00 9.000000e+00
    endloop
  endfacet
  facet normal 0.000000e+00 1.000000e+00 -6.123234e-17
    outer loop
      vertex -5.300000e+01 -6.000000e+00 2.000000e+00
      vertex -6.000000e+01 -6.000000e+00 2.000000e+00
      vertex -5.300000e+01 -6.000000e+00 9.000000e+00
    endloop
  endfacet
  facet normal 0.000000e+00 1.000000e+00 -6.123234e-17
    outer loop
      vertex -5.300000e+01 -6.000000e+00 9.000000e+00
      vertex -6.000000e+01 -6.000000e+00 2.000000e+00
      vertex -6.000000e+01 -6.000000e+00 9.000000e+00
    endloop
  endfacet
  facet normal 1.000000e+00 0.000000e+00 0.000000e+00
    outer loop
      vertex -5.300000e+01 -8.000000e+00 2.000000e+00
      vertex -5.300000e+01 -6.000000e+00 2.000000e+00
      vertex -5.300000e+01 -8.000000e+00 9.000000e+00
    endloop
  endfacet
  facet normal 1.000000e+00 0.000000e+00 0.000000e+00
    outer loop
      vertex -5.300000e+01 -8.000000e+00 9.000000e+00
      vertex -5.300000e+01 -6.000000e+00 2.000000e+00
      vertex -5.300000e+01 -6.000000e+00 9.000000e+00
    endloop
  endfacet
  facet normal 0.000000e+00 -1.000000e+00 6.123234e-17
    outer loop
      vertex -6.000000e+01 -8.000000e+00 2.000000e+00
      vertex -5.300000e+01 -8.000000e+00 2.000000e+00
      vertex -6.000000e+01 -8.000000e+00 9.000000e+00
    endloop
  endfacet
  facet normal 0.000000e+00 -1.000000e+00 6.123234e-17
    outer loop
      vertex -6.000000e+01 -8.000000e+00 9.000000e+00
      vertex -5.300000e+01 -8.000000e+00 2.000000e+00
      vertex -5.300000e+01 -8.000000e+00 9.000000e+00
    endloop
  endfacet
  facet normal -1.000000e+00 0.000000e+00 0.000000e+00
    outer loop
      vertex -6.000000e+01 -6.000000e+00 2.000000e+00
      vertex -6.000000e+01 -8.000000e+00 2.000000e+00
      vertex -6.000000e+01 -6.000000e+00 9.000000e+00
    endloop
  endfacet
  facet normal -1.000000e+00 0.000000e+00 0.000000e+00
    outer loop
      vertex -6.000000e+01 -6.000000e+00 9.000000e+00
      vertex -6.000000e+01 -8.000000e+00 2.000000e+00
      vertex -6.000000e+01 -8.000000e+00 9.000000e+00
    endloop
  endfacet
  facet normal 0.000000e+00 6.123234e-17 1.000000e+00
    outer loop
      vertex -6.000000e+01 -6.000000e+00 9.000000e+00
      vertex -6.000000e+01 -8.000000e+00 9.000000e+00
      vertex -5.300000e+01 -6.000000e+00 9.000000e+00
    endloop
  endfacet
  facet normal 0.000000e+00 6.123234e-17 1.000000e+00
    outer loop
      vertex -5.300000e+01 -6.000000e+00 9.000000e+00
      vertex -6.000000e+01 -8.000000e+00 9.000000e+00
      vertex -5.300000e+01 -8.000000e+00 9.000000e+00
    endloop
  endfacet
  facet normal 9.914449e-01 1.305262e-01 -7.992423e-18
    outer loop
      vertex -6.669037e+01 4.547066e+00 2.000000e+00
      vertex -6.669037e+01 4.547066e+00 3.338959e-16
      vertex -6.675000e+01 5.000000e+00 2.000000e+00
    endloop
  endfacet
  facet normal 9.914449e-01 1.305262e-01 -7.992423e-18
    outer loop
      vertex -6.675000e+01 5.000000e+00 2.000000e+00
      vertex -6.669037e+01 4.547066e+00 3.338959e-16
      vertex -6.675000e+01 5.000000e+00 3.061617e-16
    endloop
  endfacet
  facet normal 9.914449e-01 -1.305262e-01 7.992423e-18
    outer loop
      vertex -6.675000e+01 5.000000e+00 2.000000e+00
      vertex -6.675000e+01 5.000000e+00 3.061617e-16
      vertex -6.669037e+01 5.452934e+00 2.000000e+00
    endloop
  endfacet
  facet normal 9.914449e-01 -1.305262e-01 7.992423e-18
    outer loop
      vertex -6.669037e+01 5.452934e+00 2.000000e+00
      vertex -6.675000e+01 5.000000e+00 3.061617e-16
      vertex -6.669037e+01 5.452934e+00 2.784275e-16
    endloop
  endfacet
  facet normal 9.238795e-01 -3.826834e-01 2.343260e-17
    outer loop
      vertex -6.669037e+01 5.452934e+00 2.000000e+00
      vertex -6.669037e+01 5.452934e+00 2.784275e-16
      vertex -6.651554e+01 5.875000e+00 2.000000e+00
    endloop
  endfacet
  facet normal 9.238795e-01 -3.826834e-01 2.343260e-17
    outer loop
      vertex -6.651554e+01 5.875000e+00 2.000000e+00
      vertex -6.669037e+01 5.452934e+00 2.784275e-16
      vertex -6.651554e+01 5.875000e+00 2.525834e-16
    endloop
  endfacet
  facet normal 7.933533e-01 -6.087614e-01 3.727589e-17
    outer loop
      vertex -6.651554e+01 5.875000e+00 2.000000e+00
      vertex -6.651554e+01 5.875000e+00 2.525834e-16
      vertex -6.623744e+01 6.237434e+00 2.000000e+00
    endloop
  endfacet
  facet normal 7.933533e-01 -6.087614e-01 3.727589e-17
    outer loop
      vertex -6.623744e+01 6.237434e+00 2.000000e+00
      vertex -6.651554e+01 5.875000e+00 2.525834e-16
      vertex -6.623744e+01 6.237434e+00 2.303907e-16
    endloop
  endfacet
  facet normal 6.087614e-01 -7.933533e-01 4.857888e-17
    outer loop
      vertex -6.623744e+01 6.237434e+00 2.000000e+00
      vertex -6.623744e+01 6.237434e+00 2.303907e-16
      vertex -6.587500e+01 6.515541e+00 2.000000e+00
    endloop
  endfacet
  facet normal 6.087614e-01 -7.933533e-01 4.857888e-17
    outer loop
      vertex -6.587500e+01 6.515541e+00 2.000000e+00
      vertex -6.623744e+01 6.237434e+00 2.303907e-16
      vertex -6.587500e+01 6.515541e+00 2.133616e-16
    endloop
  endfacet
  facet normal 3.826834e-01 -9.238795e-01 5.657131e-17
    outer loop
      vertex -6.587500e+01 6.515541e+00 2.000000e+00
      vertex -6.587500e+01 6.515541e+00 2.133616e-16
      vertex -6.545293e+01 6.690369e+00 2.000000e+00
    endloop
  endfacet
  facet normal 3.826834e-01 -9.238795e-01 5.657131e-17
    outer loop
      vertex -6.545293e+01 6.690369e+00 2.000000e+00
      vertex -6.587500e+01 6.515541e+00 2.133616e-16
      vertex -6.545293e+01 6.690369e+00 2.026565e-16
    endloop
  endfacet
  facet normal 1.305262e-01 -9.914449e-01 6.070849e-17
    outer loop
      vertex -6.545293e+01 6.690369e+00 2.000000e+00
      vertex -6.545293e+01 6.690369e+00 2.026565e-16
      vertex -6.500000e+01 6.750000e+00 2.000000e+00
    endloop
  endfacet
  facet normal 1.305262e-01 -9.914449e-01 6.070849e-17
    outer loop
      vertex -6.500000e+01 6.750000e+00 2.000000e+00
      vertex -6.545293e+01 6.690369e+00 2.026565e-16
      vertex -6.500000e+01 6.750000e+00 1.990051e-16
    endloop
  endfacet
  facet normal -1.305262e-01 -9.914449e-01 6.070849e-17
    outer loop
      vertex -6.500000e+01 6.750000e+00 2.000000e+00
      vertex -6.500000e+01 6.750000e+00 1.990051e-16
      vertex -6.454707e+01 6.690369e+00 2.000000e+00
    endloop
  endfacet
  facet normal -1.305262e-01 -9.914449e-01 6.070849e-17
    outer loop
      vertex -6.454707e+01 6.690369e+00 2.000000e+00
      vertex -6.500000e+01 6.750000e+00 1.990051e-16
      vertex -6.454707e+01 6.690369e+00 2.026565e-16
    endloop
  endfacet
  facet normal -3.826834e-01 -9.238795e-01 5.657131e-17
    outer loop
      vertex -6.454707e+01 6.690369e+00 2.000000e+00
      vertex -6.454707e+01 6.690369e+00 2.026565e-16
      vertex -6.412500e+01 6.515541e+00 2.000000e+00
    endloop
  endfacet
  facet normal -3.826834e-01 -9.238795e-01 5.657131e-17
    outer loop
      vertex -6.412500e+01 6.515541e+00 2.000000e+00
      vertex -6.454707e+01 6.690369e+00 2.026565e-16
      vertex -6.412500e+01 6.515541e+00 2.133616e-16
    endloop
  endfacet
  facet normal -6.087614e-01 -7.933533e-01 4.857888e-17
    outer loop
      vertex -6.412500e+01 6.515541e+00 2.000000e+00
      vertex -6.412500e+01 6.515541e+00 2.133616e-16
      vertex -6.376256e+01 6.237434e+00 2.000000e+00
    endloop
  endfacet
  facet normal -6.087614e-01 -7.933533e-01 4.857888e-17
    outer loop
      vertex -6.376256e+01 6.237434e+00 2.000000e+00
      vertex -6.412500e+01 6.515541e+00 2.133616e-16
      vertex -6.376256e+01 6.237434e+00 2.303907e-16
    endloop
  endfacet
  facet normal -7.933533e-01 -6.087614e-01 3.727589e-17
    outer loop
      vertex -6.376256e+01 6.237434e+00 2.000000e+00
      vertex -6.376256e+01 6.237434e+00 2.303907e-16
      vertex -6.348446e+01 5.875000e+00 2.000000e+00
    endloop
  endfacet
  facet normal -7.933533e-01 -6.087614e-01 3.727589e-17
    outer loop
      vertex -6.348446e+01 5.875000e+00 2.000000e+00
      vertex -6.376256e+01 6.237434e+00 2.303907e-16
      vertex -6.348446e+01 5.875000e+00 2.525834e-16
    endloop
  endfacet
  facet normal -9.238795e-01 -3.826834e-01 2.343260e-17
    outer loop
      vertex -6.348446e+01 5.875000e+00 2.000000e+00
      vertex -6.348446e+01 5.875000e+00 2.525834e-16
      vertex -6.330963e+01 5.452934e+00 2.000000e+00
    endloop
  endfacet
  facet normal -9.238795e-01 -3.826834e-01 2.343260e-17
    outer loop
      vertex -6.330963e+01 5.452934e+00 2.000000e+00
      vertex -6.348446e+01 5.875000e+00 2.525834e-16
      vertex -6.330963e+01 5.452934e+00 2.784275e-16
    endloop
  endfacet
  facet normal -9.914449e-01 -1.305262e-01 7.992423e-18
    outer loop
      vertex -6.330963e+01 5.452934e+00 2.000000e+00
      vertex -6.330963e+01 5.452934e+00 2.784275e-16
      vertex -6.325000e+01 5.000000e+00 2.000000e+00
    endloop
  endfacet
  facet normal -9.914449e-01 -1.305262e-01 7.992423e-18
    outer loop
      vertex -6.325000e+01 5.000000e+00 2.000000e+00
      vertex -6.330963e+01 5.452934e+00 2.784275e-16
      vertex -6.325000e+01 5.000000e+00 3.061617e-16
    endloop
  endfacet
  facet normal -9.914449e-01 1.305262e-01 -7.992423e-18
    outer loop
      vertex -6.325000e+01 5.000000e+00 2.000000e+00
      vertex -6.325000e+01 5.000000e+00 3.061617e-16
      vertex -6.330963e+01 4.547066e+00 2.000000e+00
    endloop
  endfacet
  facet normal -9.914449e-01 1.305262e-01 -7.992423e-18
    outer loop
      vertex -6.330963e+01 4.547066e+00 2.000000e+00
      vertex -6.325000e+01 5.000000e+00 3.061617e-16
      vertex -6.330963e+01 4.547066e+00 3.338959e-16
    endloop
  endfacet
  facet normal -9.238795e-01 3.826834e-01 -2.343260e-17
    outer loop
      vertex -6.330963e+01 4.547066e+00 2.000000e+00
      vertex -6.330963e+01 4.547066e+00 3.338959e-16
      vertex -6.348446e+01 4.125000e+00 2.000000e+00
    endloop
  endfacet
  facet normal -9.238795e-01 3.826834e-01 -2.343260e-17
    outer loop
      vertex -6.348446e+01 4.125000e+00 2.000000e+00
      vertex -6.330963e+01 4.547066e+00 3.338959e-16
      vertex -6.348446e+01 4.125000e+00 3.597400e-16
    endloop
  endfacet
  facet normal -7.933533e-01 6.087614e-01 -3.727589e-17
    outer loop
      vertex -6.348446e+01 4.125000e+00 2.000000e+00
      vertex -6.348446e+01 4.125000e+00 3.597400e-16
      vertex -6.376256e+01 3.762566e+00 2.000000e+00
    endloop
  endfacet
  facet normal -7.933533e-01 6.087614e-01 -3.727589e-17
    outer loop
      vertex -6.376256e+01 3.762566e+00 2.000000e+00
      vertex -6.348446e+01 4.125000e+00 3.597400e-16
      vertex -6.376256e+01 3.762566e+00 3.819327e-16
    endloop
  endfacet
  facet normal -6.087614e-01 7.933533e-01 -4.857888e-17
    outer loop
      vertex -6.376256e+01 3.762566e+00 2.000000e+00
      vertex -6.376256e+01 3.762566e+00 3.819327e-16
      vertex -6.412500e+01 3.484459e+00 2.000000e+00
    endloop
  endfacet
  facet normal -6.087614e-01 7.933533e-01 -4.857888e-17
    outer loop
      vertex -6.412500e+01 3.484459e+00 2.000000e+00
      vertex -6.376256e+01 3.762566e+00 3.819327e-16
      vertex -6.412500e+01 3.484459e+00 3.989618e-16
    endloop
  endfacet
  facet normal -3.826834e-01 9.238795e-01 -5.657131e-17
    outer loop
      vertex -6.412500e+01 3.484459e+00 2.000000e+00
      vertex -6.412500e+01 3.484459e+00 3.989618e-16
      vertex -6.454707e+01 3.309631e+00 2.000000e+00
    endloop
  endfacet
  facet normal -3.826834e-01 9.238795e-01 -5.657131e-17
    outer loop
      vertex -6.454707e+01 3.309631e+00 2.000000e+00
      vertex -6.412500e+01 3.484459e+00 3.989618e-16
      vertex -6.454707e+01 3.309631e+00 4.096669e-16
    endloop
  endfacet
  facet normal -1.305262e-01 9.914449e-01 -6.070849e-17
    outer loop
      vertex -6.454707e+01 3.309631e+00 2.000000e+00
      vertex -6.454707e+01 3.309631e+00 4.096669e-16
      vertex -6.500000e+01 3.250000e+00 2.000000e+00
    endloop
  endfacet
  facet normal -1.305262e-01 9.914449e-01 -6.070849e-17
    outer loop
      vertex -6.500000e+01 3.250000e+00 2.000000e+00
      vertex -6.454707e+01 3.309631e+00 4.096669e-16
      vertex -6.500000e+01 3.250000e+00 4.133183e-16
    endloop
  endfacet
  facet normal 1.305262e-01 9.914449e-01 -6.070849e-17
    outer loop
      vertex -6.500000e+01 3.250000e+00 2.000000e+00
      vertex -6.500000e+01 3.250000e+00 4.133183e-16
      vertex -6.545293e+01 3.309631e+00 2.000000e+00
    endloop
  endfacet
  facet normal 1.305262e-01 9.914449e-01 -6.070849e-17
    outer loop
      vertex -6.545293e+01 3.309631e+00 2.000000e+00
      vertex -6.500000e+01 3.250000e+00 4.133183e-16
      vertex -6.545293e+01 3.309631e+00 4.096669e-16
    endloop
  endfacet
  facet normal 3.826834e-01 9.238795e-01 -5.657131e-17
    outer loop
      vertex -6.545293e+01 3.309631e+00 2.000000e+00
      vertex -6.545293e+01 3.309631e+00 4.096669e-16
      vertex -6.587500e+01 3.484459e+00 2.000000e+00
    endloop
  endfacet
  facet normal 3.826834e-01 9.238795e-01 -5.657131e-17
    outer loop
      vertex -6.587500e+01 3.484459e+00 2.000000e+00
      vertex -6.545293e+01 3.309631e+00 4.096669e-16
      vertex -6.587500e+01 3.484459e+00 3.989618e-16
    endloop
  endfacet
  facet normal 6.087614e-01 7.933533e-01 -4.857888e-17
    outer loop
      vertex -6.587500e+01 3.484459e+00 2.000000e+00
      vertex -6.587500e+01 3.484459e+00 3.989618e-16
      vertex -6.623744e+01 3.762566e+00 2.000000e+00
    endloop
  endfacet
  facet normal 6.087614e-01 7.933533e-01 -4.857888e-17
    outer loop
      vertex -6.623744e+01 3.762566e+00 2.000000e+00
      vertex -6.587500e+01 3.484459e+00 3.989618e-16
      vertex -6.623744e+01 3.762566e+00 3.819327e-16
    endloop
  endfacet
  facet normal 7.933533e-01 6.087614e-01 -3.727589e-17
    outer loop
      vertex -6.623744e+01 3.762566e+00 2.000000e+00
      vertex -6.623744e+01 3.762566e+00 3.819327e-16
      vertex -6.651554e+01 4.125000e+00 2.000000e+00
    endloop
  endfacet
  facet normal 7.933533e-01 6.087614e-01 -3.727589e-17
    outer loop
      vertex -6.651554e+01 4.125000e+00 2.000000e+00
      vertex -6.623744e+01 3.762566e+00 3.819327e-16
      vertex -6.651554e+01 4.125000e+00 3.597400e-16
    endloop
  endfacet
  facet normal 9.238795e-01 3.826834e-01 -2.343260e-17
    outer loop
      vertex -6.651554e+01 4.125000e+00 2.000000e+00
      vertex -6.651554e+01 4.125000e+00 3.597400e-16
      vertex -6.669037e+01 4.547066e+00 2.000000e+00
    endloop
  endfacet
  facet normal 9.238795e-01 3.826834e-01 -2.343260e-17
    outer loop
      vertex -6.669037e+01 4.547066e+00 2.000000e+00
      vertex -6.651554e+01 4.125000e+00 3.597400e-16
      vertex -6.669037e+01 4.547066e+00 3.338959e-16
    endloop
  endfacet
  facet normal 0.000000e+00 1.000000e+00 -6.123234e-17
    outer loop
      vertex 6.828920e+01 3.580254e+00 3.930961e-16
      vertex -5.321080e+01 3.580254e+00 3.930961e-16
      vertex 6.828920e+01 3.580254e+00 2.000000e+00
    endloop
  endfacet
  facet normal 0.000000e+00 1.000000e+00 -6.123234e-17
    outer loop
      vertex 6.828920e+01 3.580254e+00 2.000000e+00
      vertex -5.321080e+01 3.580254e+00 3.930961e-16
      vertex -5.321080e+01 3.580254e+00 2.000000e+00
    endloop
  endfacet
  facet normal -1.305262e-01 -9.914449e-01 6.070849e-17
    outer loop
      vertex 6.828920e+01 7.080254e+00 2.000000e+00
      vertex 6.828920e+01 7.080254e+00 1.787829e-16
      vertex 6.874213e+01 7.020622e+00 2.000000e+00
    endloop
  endfacet
  facet normal -1.305262e-01 -9.914449e-01 6.070849e-17
    outer loop
      vertex 6.874213e+01 7.020622e+00 2.000000e+00
      vertex 6.828920e+01 7.080254e+00 1.787829e-16
      vertex 6.874213e+01 7.020622e+00 1.824343e-16
    endloop
  endfacet
  facet normal -3.826834e-01 -9.238795e-01 5.657131e-17
    outer loop
      vertex 6.874213e+01 7.020622e+00 2.000000e+00
      vertex 6.874213e+01 7.020622e+00 1.824343e-16
      vertex 6.916420e+01 6.845795e+00 2.000000e+00
    endloop
  endfacet
  facet normal -3.826834e-01 -9.238795e-01 5.657131e-17
    outer loop
      vertex 6.916420e+01 6.845795e+00 2.000000e+00
      vertex 6.874213e+01 7.020622e+00 1.824343e-16
      vertex 6.916420e+01 6.845795e+00 1.931394e-16
    endloop
  endfacet
  facet normal -6.087614e-01 -7.933533e-01 4.857888e-17
    outer loop
      vertex 6.916420e+01 6.845795e+00 2.000000e+00
      vertex 6.916420e+01 6.845795e+00 1.931394e-16
      vertex 6.952663e+01 6.567688e+00 2.000000e+00
    endloop
  endfacet
  facet normal -6.087614e-01 -7.933533e-01 4.857888e-17
    outer loop
      vertex 6.952663e+01 6.567688e+00 2.000000e+00
      vertex 6.916420e+01 6.845795e+00 1.931394e-16
      vertex 6.952663e+01 6.567688e+00 2.101685e-16
    endloop
  endfacet
  facet normal -7.933533e-01 -6.087614e-01 3.727589e-17
    outer loop
      vertex 6.952663e+01 6.567688e+00 2.000000e+00
      vertex 6.952663e+01 6.567688e+00 2.101685e-16
      vertex 6.980474e+01 6.205254e+00 2.000000e+00
    endloop
  endfacet
  facet normal -7.933533e-01 -6.087614e-01 3.727589e-17
    outer loop
      vertex 6.980474e+01 6.205254e+00 2.000000e+00
      vertex 6.952663e+01 6.567688e+00 2.101685e-16
      vertex 6.980474e+01 6.205254e+00 2.323612e-16
    endloop
  endfacet
  facet normal -9.238795e-01 -3.826834e-01 2.343260e-17
    outer loop
      vertex 6.980474e+01 6.205254e+00 2.000000e+00
      vertex 6.980474e+01 6.205254e+00 2.323612e-16
      vertex 6.997957e+01 5.783188e+00 2.000000e+00
    endloop
  endfacet
  facet normal -9.238795e-01 -3.826834e-01 2.343260e-17
    outer loop
      vertex 6.997957e+01 5.783188e+00 2.000000e+00
      vertex 6.980474e+01 6.205254e+00 2.323612e-16
      vertex 6.997957e+01 5.783188e+00 2.582053e-16
    endloop
  endfacet
  facet normal -9.914449e-01 -1.305262e-01 7.992423e-18
    outer loop
      vertex 6.997957e+01 5.783188e+00 2.000000e+00
      vertex 6.997957e+01 5.783188e+00 2.582053e-16
      vertex 7.003920e+01 5.330254e+00 2.000000e+00
    endloop
  endfacet
  facet normal -9.914449e-01 -1.305262e-01 7.992423e-18
    outer loop
      vertex 7.003920e+01 5.330254e+00 2.000000e+00
      vertex 6.997957e+01 5.783188e+00 2.582053e-16
      vertex 7.003920e+01 5.330254e+00 2.859395e-16
    endloop
  endfacet
  facet normal -9.914449e-01 1.305262e-01 -7.992423e-18
    outer loop
      vertex 7.003920e+01 5.330254e+00 2.000000e+00
      vertex 7.003920e+01 5.330254e+00 2.859395e-16
      vertex 6.997957e+01 4.877319e+00 2.000000e+00
    endloop
  endfacet
  facet normal -9.914449e-01 1.305262e-01 -7.992423e-18
    outer loop
      vertex 6.997957e+01 4.877319e+00 2.000000e+00
      vertex 7.003920e+01 5.330254e+00 2.859395e-16
      vertex 6.997957e+01 4.877319e+00 3.136737e-16
    endloop
  endfacet
  facet normal -9.238795e-01 3.826834e-01 -2.343260e-17
    outer loop
      vertex 6.997957e+01 4.877319e+00 2.000000e+00
      vertex 6.997957e+01 4.877319e+00 3.136737e-16
      vertex 6.980474e+01 4.455254e+00 2.000000e+00
    endloop
  endfacet
  facet normal -9.238795e-01 3.826834e-01 -2.343260e-17
    outer loop
      vertex 6.980474e+01 4.455254e+00 2.000000e+00
      vertex 6.997957e+01 4.877319e+00 3.136737e-16
      vertex 6.980474e+01 4.455254e+00 3.395178e-16
    endloop
  endfacet
  facet normal -7.933533e-01 6.087614e-01 -3.727589e-17
    outer loop
      vertex 6.980474e+01 4.455254e+00 2.000000e+00
      vertex 6.980474e+01 4.455254e+00 3.395178e-16
      vertex 6.952663e+01 4.092812e+00 2.000000e+00
    endloop
  endfacet
  facet normal -7.933533e-01 6.087614e-01 -3.727589e-17
    outer loop
      vertex 6.952663e+01 4.092812e+00 2.000000e+00
      vertex 6.980474e+01 4.455254e+00 3.395178e-16
      vertex 6.952663e+01 4.092812e+00 3.617110e-16
    endloop
  endfacet
  facet normal -6.087614e-01 7.933533e-01 -4.857888e-17
    outer loop
      vertex 6.952663e+01 4.092812e+00 2.000000e+00
      vertex 6.952663e+01 4.092812e+00 3.617110e-16
      vertex 6.916420e+01 3.814705e+00 2.000000e+00
    endloop
  endfacet
  facet normal -6.087614e-01 7.933533e-01 -4.857888e-17
    outer loop
      vertex 6.916420e+01 3.814705e+00 2.000000e+00
      vertex 6.952663e+01 4.092812e+00 3.617110e-16
      vertex 6.916420e+01 3.814705e+00 3.787401e-16
    endloop
  endfacet
  facet normal -3.826834e-01 9.238795e-01 -5.657131e-17
    outer loop
      vertex 6.916420e+01 3.814705e+00 2.000000e+00
      vertex 6.916420e+01 3.814705e+00 3.787401e-16
      vertex 6.874213e+01 3.639877e+00 2.000000e+00
    endloop
  endfacet
  facet normal -3.826834e-01 9.238795e-01 -5.657131e-17
    outer loop
      vertex 6.874213e+01 3.639877e+00 2.000000e+00
      vertex 6.916420e+01 3.814705e+00 3.787401e-16
      vertex 6.874213e+01 3.639877e+00 3.894452e-16
    endloop
  endfacet
  facet normal -1.305262e-01 9.914449e-01 -6.070849e-17
    outer loop
      vertex 6.874213e+01 3.639877e+00 2.000000e+00
      vertex 6.874213e+01 3.639877e+00 3.894452e-16
      vertex 6.828920e+01 3.580254e+00 2.000000e+00
    endloop
  endfacet
  facet normal -1.305262e-01 9.914449e-01 -6.070849e-17
    outer loop
      vertex 6.828920e+01 3.580254e+00 2.000000e+00
      vertex 6.874213e+01 3.639877e+00 3.894452e-16
      vertex 6.828920e+01 3.580254e+00 3.930961e-16
    endloop
  endfacet
  facet normal 0.000000e+00 -1.000000e+00 6.123234e-17
    outer loop
      vertex -5.321080e+01 7.080254e+00 1.787829e-16
      vertex 6.828920e+01 7.080254e+00 1.787829e-16
      vertex -5.321080e+01 7.080254e+00 2.000000e+00
    endloop
  endfacet
  facet normal 0.000000e+00 -1.000000e+00 6.123234e-17
    outer loop
      vertex -5.321080e+01 7.080254e+00 2.000000e+00
      vertex 6.828920e+01 7.080254e+00 1.787829e-16
      vertex 6.828920e+01 7.080254e+00 2.000000e+00
    endloop
  endfacet
  facet normal 1.305262e-01 9.914449e-01 -6.070849e-17
    outer loop
      vertex -5.321080e+01 3.580254e+00 2.000000e+00
      vertex -5.321080e+01 3.580254e+00 3.930961e-16
      vertex -5.366374e+01 3.639877e+00 2.000000e+00
    endloop
  endfacet
  facet normal 1.305262e-01 9.914449e-01 -6.070849e-17
    outer loop
      vertex -5.366374e+01 3.639877e+00 2.000000e+00
      vertex -5.321080e+01 3.580254e+00 3.930961e-16
      vertex -5.366374e+01 3.639877e+00 3.894452e-16
    endloop
  endfacet
  facet normal 3.826834e-01 9.238795e-01 -5.657131e-17
    outer loop
      vertex -5.366374e+01 3.639877e+00 2.000000e+00
      vertex -5.366374e+01 3.639877e+00 3.894452e-16
      vertex -5.408580e+01 3.814705e+00 2.000000e+00
    endloop
  endfacet
  facet normal 3.826834e-01 9.238795e-01 -5.657131e-17
    outer loop
      vertex -5.408580e+01 3.814705e+00 2.000000e+00
      vertex -5.366374e+01 3.639877e+00 3.894452e-16
      vertex -5.408580e+01 3.814705e+00 3.787401e-16
    endloop
  endfacet
  facet normal 6.087614e-01 7.933533e-01 -4.857888e-17
    outer loop
      vertex -5.408580e+01 3.814705e+00 2.000000e+00
      vertex -5.408580e+01 3.814705e+00 3.787401e-16
      vertex -5.444824e+01 4.092812e+00 2.000000e+00
    endloop
  endfacet
  facet normal 6.087614e-01 7.933533e-01 -4.857888e-17
    outer loop
      vertex -5.444824e+01 4.092812e+00 2.000000e+00
      vertex -5.408580e+01 3.814705e+00 3.787401e-16
      vertex -5.444824e+01 4.092812e+00 3.617110e-16
    endloop
  endfacet
  facet normal 7.933533e-01 6.087614e-01 -3.727589e-17
    outer loop
      vertex -5.444824e+01 4.092812e+00 2.000000e+00
      vertex -5.444824e+01 4.092812e+00 3.617110e-16
      vertex -5.472635e+01 4.455254e+00 2.000000e+00
    endloop
  endfacet
  facet normal 7.933533e-01 6.087614e-01 -3.727589e-17
    outer loop
      vertex -5.472635e+01 4.455254e+00 2.000000e+00
      vertex -5.444824e+01 4.092812e+00 3.617110e-16
      vertex -5.472635e+01 4.455254e+00 3.395178e-16
    endloop
  endfacet
  facet normal 9.238795e-01 3.826834e-01 -2.343260e-17
    outer loop
      vertex -5.472635e+01 4.455254e+00 2.000000e+00
      vertex -5.472635e+01 4.455254e+00 3.395178e-16
      vertex -5.490117e+01 4.877319e+00 2.000000e+00
    endloop
  endfacet
  facet normal 9.238795e-01 3.826834e-01 -2.343260e-17
    outer loop
      vertex -5.490117e+01 4.877319e+00 2.000000e+00
      vertex -5.472635e+01 4.455254e+00 3.395178e-16
      vertex -5.490117e+01 4.877319e+00 3.136737e-16
    endloop
  endfacet
  facet normal 9.914449e-01 1.305262e-01 -7.992423e-18
    outer loop
      vertex -5.490117e+01 4.877319e+00 2.000000e+00
      vertex -5.490117e+01 4.877319e+00 3.136737e-16
      vertex -5.496080e+01 5.330254e+00 2.000000e+00
    endloop
  endfacet
  facet normal 9.914449e-01 1.305262e-01 -7.992423e-18
    outer loop
      vertex -5.496080e+01 5.330254e+00 2.000000e+00
      vertex -5.490117e+01 4.877319e+00 3.136737e-16
      vertex -5.496080e+01 5.330254e+00 2.859395e-16
    endloop
  endfacet
  facet normal 9.914449e-01 -1.305262e-01 7.992423e-18
    outer loop
      vertex -5.496080e+01 5.330254e+00 2.000000e+00
      vertex -5.496080e+01 5.330254e+00 2.859395e-16
      vertex -5.490117e+01 5.783188e+00 2.000000e+00
    endloop
  endfacet
  facet normal 9.914449e-01 -1.305262e-01 7.992423e-18
    outer loop
      vertex -5.490117e+01 5.783188e+00 2.000000e+00
      vertex -5.496080e+01 5.330254e+00 2.859395e-16
      vertex -5.490117e+01 5.783188e+00 2.582053e-16
    endloop
  endfacet
  facet normal 9.238795e-01 -3.826834e-01 2.343260e-17
    outer loop
      vertex -5.490117e+01 5.783188e+00 2.000000e+00
      vertex -5.490117e+01 5.783188e+00 2.582053e-16
      vertex -5.472635e+01 6.205254e+00 2.000000e+00
    endloop
  endfacet
  facet normal 9.238795e-01 -3.826834e-01 2.343260e-17
    outer loop
      vertex -5.472635e+01 6.205254e+00 2.000000e+00
      vertex -5.490117e+01 5.783188e+00 2.582053e-16
      vertex -5.472635e+01 6.205254e+00 2.323612e-16
    endloop
  endfacet
  facet normal 7.933533e-01 -6.087614e-01 3.727589e-17
    outer loop
      vertex -5.472635e+01 6.205254e+00 2.000000e+00
      vertex -5.472635e+01 6.205254e+00 2.323612e-16
      vertex -5.444824e+01 6.567688e+00 2.000000e+00
    endloop
  endfacet
  facet normal 7.933533e-01 -6.087614e-01 3.727589e-17
    outer loop
      vertex -5.444824e+01 6.567688e+00 2.000000e+00
      vertex -5.472635e+01 6.205254e+00 2.323612e-16
      vertex -5.444824e+01 6.567688e+00 2.101685e-16
    endloop
  endfacet
  facet normal 6.087614e-01 -7.933533e-01 4.857888e-17
    outer loop
      vertex -5.444824e+01 6.567688e+00 2.000000e+00
      vertex -5.444824e+01 6.567688e+00 2.101685e-16
      vertex -5.408580e+01 6.845795e+00 2.000000e+00
    endloop
  endfacet
  facet normal 6.087614e-01 -7.933533e-01 4.857888e-17
    outer loop
      vertex -5.408580e+01 6.845795e+00 2.000000e+00
      vertex -5.444824e+01 6.567688e+00 2.101685e-16
      vertex -5.408580e+01 6.845795e+00 1.931394e-16
    endloop
  endfacet
  facet normal 3.826834e-01 -9.238795e-01 5.657131e-17
    outer loop
      vertex -5.408580e+01 6.845795e+00 2.000000e+00
      vertex -5.408580e+01 6.845795e+00 1.931394e-16
      vertex -5.366374e+01 7.020622e+00 2.000000e+00
    endloop
  endfacet
  facet normal 3.826834e-01 -9.238795e-01 5.657131e-17
    outer loop
      vertex -5.366374e+01 7.020622e+00 2.000000e+00
      vertex -5.408580e+01 6.845795e+00 1.931394e-16
      vertex -5.366374e+01 7.020622e+00 1.824343e-16
    endloop
  endfacet
  facet normal 1.305262e-01 -9.914449e-01 6.070849e-17
    outer loop
      vertex -5.366374e+01 7.020622e+00 2.000000e+00
      vertex -5.366374e+01 7.020622e+00 1.824343e-16
      vertex -5.321080e+01 7.080254e+00 2.000000e+00
    endloop
  endfacet
  facet normal 1.305262e-01 -9.914449e-01 6.070849e-17
    outer loop
      vertex -5.321080e+01 7.080254e+00 2.000000e+00
      vertex -5.366374e+01 7.020622e+00 1.824343e-16
      vertex -5.321080e+01 7.080254e+00 1.787829e-16
    endloop
  endfacet
  facet normal 0.000000e+00 -1.000000e+00 6.123234e-17
    outer loop
      vertex -7.500000e+01 -1.000000e+01 1.224647e-15
      vertex 7.500000e+01 -1.000000e+01 1.224647e-15
      vertex -7.500000e+01 -1.000000e+01 2.000000e+00
    endloop
  endfacet
  facet normal 0.000000e+00 -1.000000e+00 6.123234e-17
    outer loop
      vertex -7.500000e+01 -1.000000e+01 2.000000e+00
      vertex 7.500000e+01 -1.000000e+01 1.224647e-15
      vertex 7.500000e+01 -1.000000e+01 2.000000e+00
    endloop
  endfacet
  facet normal -1.000000e+00 0.000000e+00 0.000000e+00
    outer loop
      vertex -7.500000e+01 1.000000e+01 0.000000e+00
      vertex -7.500000e+01 -1.000000e+01 1.224647e-15
      vertex -7.500000e+01 1.000000e+01 2.000000e+00
    endloop
  endfacet
  facet normal -1.000000e+00 0.000000e+00 0.000000e+00
    outer loop
      vertex -7.500000e+01 1.000000e+01 2.000000e+00
      vertex -7.500000e+01 -1.000000e+01 1.224647e-15
      vertex -7.500000e+01 -1.000000e+01 2.000000e+00
    endloop
  endfacet
  facet normal 0.000000e+00 1.000000e+00 -6.123234e-17
    outer loop
      vertex 7.500000e+01 1.000000e+01 0.000000e+00
      vertex -7.500000e+01 1.000000e+01 0.000000e+00
      vertex 7.500000e+01 1.000000e+01 2.000000e+00
    endloop
  endfacet
  facet normal 0.000000e+00 1.000000e+00 -6.123234e-17
    outer loop
      vertex 7.500000e+01 1.000000e+01 2.000000e+00
      vertex -7.500000e+01 1.000000e+01 0.000000e+00
      vertex -7.500000e+01 1.000000e+01 2.000000e+00
    endloop
  endfacet
  facet normal 1.000000e+00 0.000000e+00 0.000000e+00
    outer loop
      vertex 7.500000e+01 -1.000000e+01 1.224647e-15
      vertex 7.500000e+01 1.000000e+01 0.000000e+00
      vertex 7.500000e+01 -1.000000e+01 2.000000e+00
    endloop
  endfacet
  facet normal 1.000000e+00 0.000000e+00 0.000000e+00
    outer loop
      vertex 7.500000e+01 -1.000000e+01 2.000000e+00
      vertex 7.500000e+01 1.000000e+01 0.000000e+00
      vertex 7.500000e+01 1.000000e+01 2.000000e+00
    endloop
  endfacet
  facet normal 0.000000e+00 6.123234e-17 1.000000e+00
    outer loop
      vertex 6.000000e+01 -8.000000e+00 2.000000e+00
      vertex 7.500000e+01 -1.000000e+01 2.000000e+00
      vertex 6.000000e+01 -6.000000e+00 2.000000e+00
    endloop
  endfacet
  facet normal 0.000000e+00 6.123234e-17 1.000000e+00
    outer loop
      vertex 6.000000e+01 -6.000000e+00 2.000000e+00
      vertex 7.500000e+01 -1.000000e+01 2.000000e+00
      vertex 6.874213e+01 3.639877e+00 2.000000e+00
    endloop
  endfacet
  facet normal 0.000000e+00 6.123234e-17 1.000000e+00
    outer loop
      vertex 6.000000e+01 -6.000000e+00 2.000000e+00
      vertex 6.874213e+01 3.639877e+00 2.000000e+00
      vertex 6.828920e+01 3.580254e+00 2.000000e+00
    endloop
  endfacet
  facet normal 0.000000e+00 6.123234e-17 1.000000e+00
    outer loop
      vertex 6.000000e+01 -8.000000e+00 2.000000e+00
      vertex 5.300000e+01 -8.000000e+00 2.000000e+00
      vertex 7.500000e+01 -1.000000e+01 2.000000e+00
    endloop
  endfacet
  facet normal 0.000000e+00 6.123234e-17 1.000000e+00
    outer loop
      vertex 7.500000e+01 -1.000000e+01 2.000000e+00
      vertex 5.300000e+01 -8.000000e+00 2.000000e+00
      vertex -5.300000e+01 -8.000000e+00 2.000000e+00
    endloop
  endfacet
  facet normal 0.000000e+00 6.123234e-17 1.000000e+00
    outer loop
      vertex 7.500000e+01 -1.000000e+01 2.000000e+00
      vertex -5.300000e+01 -8.000000e+00 2.000000e+00
      vertex -7.500000e+01 -1.000000e+01 2.000000e+00
    endloop
  endfacet
  facet normal 0.000000e+00 6.123234e-17 1.000000e+00
    outer loop
      vertex -7.500000e+01 -1.000000e+01 2.000000e+00
      vertex -5.300000e+01 -8.000000e+00 2.000000e+00
      vertex -6.000000e+01 -8.000000e+00 2.000000e+00
    endloop
  endfacet
  facet normal 0.000000e+00 6.123234e-17 1.000000e+00
    outer loop
      vertex -7.500000e+01 -1.000000e+01 2.000000e+00
      vertex -6.000000e+01 -8.000000e+00 2.000000e+00
      vertex -6.000000e+01 -6.000000e+00 2.000000e+00
    endloop
  endfacet
  facet normal 0.000000e+00 6.123234e-17 1.000000e+00
    outer loop
      vertex -5.300000e+01 -8.000000e+00 2.000000e+00
      vertex 5.300000e+01 -8.000000e+00 2.000000e+00
      vertex -5.300000e+01 -6.000000e+00 2.000000e+00
    endloop
  endfacet
  facet normal 0.000000e+00 6.123234e-17 1.000000e+00
    outer loop
      vertex -5.300000e+01 -6.000000e+00 2.000000e+00
      vertex 5.300000e+01 -8.000000e+00 2.000000e+00
      vertex 5.300000e+01 -6.000000e+00 2.000000e+00
    endloop
  endfacet
  facet normal 0.000000e+00 6.123234e-17 1.000000e+00
    outer loop
      vertex -5.300000e+01 -6.000000e+00 2.000000e+00
      vertex 5.300000e+01 -6.000000e+00 2.000000e+00
      vertex -5.321080e+01 3.580254e+00 2.000000e+00
    endloop
  endfacet
  facet normal 0.000000e+00 6.123234e-17 1.000000e+00
    outer loop
      vertex -5.321080e+01 3.580254e+00 2.000000e+00
      vertex 5.300000e+01 -6.000000e+00 2.000000e+00
      vertex 6.828920e+01 3.580254e+00 2.000000e+00
    endloop
  endfacet
  facet normal 0.000000e+00 6.123234e-17 1.000000e+00
    outer loop
      vertex 6.828920e+01 3.580254e+00 2.000000e+00
      vertex 5.300000e+01 -6.000000e+00 2.000000e+00
      vertex 6.000000e+01 -6.000000e+00 2.000000e+00
    endloop
  endfacet
  facet normal 0.000000e+00 6.123234e-17 1.000000e+00
    outer loop
      vertex -5.300000e+01 -6.000000e+00 2.000000e+00
      vertex -6.500000e+01 3.250000e+00 2.000000e+00
      vertex -6.000000e+01 -6.000000e+00 2.000000e+00
    endloop
  endfacet
  facet normal 0.000000e+00 6.123234e-17 1.000000e+00
    outer loop
      vertex -6.000000e+01 -6.000000e+00 2.000000e+00
      vertex -6.500000e+01 3.250000e+00 2.000000e+00
      vertex -6.545293e+01 3.309631e+00 2.000000e+00
    endloop
  endfacet
  facet normal 0.000000e+00 6.123234e-17 1.000000e+00
    outer loop
      vertex -6.000000e+01 -6.000000e+00 2.000000e+00
      vertex -6.545293e+01 3.309631e+00 2.000000e+00
      vertex -7.500000e+01 -1.000000e+01 2.000000e+00
    endloop
  endfacet
  facet normal 0.000000e+00 6.123234e-17 1.000000e+00
    outer loop
      vertex -7.500000e+01 -1.000000e+01 2.000000e+00
      vertex -6.545293e+01 3.309631e+00 2.000000e+00
      vertex -6.587500e+01 3.484459e+00 2.000000e+00
    endloop
  endfacet
  facet normal 0.000000e+00 6.123234e-17 1.000000e+00
    outer loop
      vertex -7.500000e+01 -1.000000e+01 2.000000e+00
      vertex -6.587500e+01 3.484459e+00 2.000000e+00
      vertex -6.623744e+01 3.762566e+00 2.000000e+00
    endloop
  endfacet
  facet normal 0.000000e+00 6.123234e-17 1.000000e+00
    outer loop
      vertex -5.366374e+01 3.639877e+00 2.000000e+00
      vertex -6.454707e+01 3.309631e+00 2.000000e+00
      vertex -5.321080e+01 3.580254e+00 2.000000e+00
    endloop
  endfacet
  facet normal 0.000000e+00 6.123234e-17 1.000000e+00
    outer loop
      vertex -5.321080e+01 3.580254e+00 2.000000e+00
      vertex -6.454707e+01 3.309631e+00 2.000000e+00
      vertex -6.500000e+01 3.250000e+00 2.000000e+00
    endloop
  endfacet
  facet normal 0.000000e+00 6.123234e-17 1.000000e+00
    outer loop
      vertex -5.321080e+01 3.580254e+00 2.000000e+00
      vertex -6.500000e+01 3.250000e+00 2.000000e+00
      vertex -5.300000e+01 -6.000000e+00 2.000000e+00
    endloop
  endfacet
  facet normal 0.000000e+00 6.123234e-17 1.000000e+00
    outer loop
      vertex -5.408580e+01 3.814705e+00 2.000000e+00
      vertex -6.376256e+01 3.762566e+00 2.000000e+00
      vertex -5.366374e+01 3.639877e+00 2.000000e+00
    endloop
  endfacet
  facet normal 0.000000e+00 6.123234e-17 1.000000e+00
    outer loop
      vertex -5.366374e+01 3.639877e+00 2.000000e+00
      vertex -6.376256e+01 3.762566e+00 2.000000e+00
      vertex -6.412500e+01 3.484459e+00 2.000000e+00
    endloop
  endfacet
  facet normal 0.000000e+00 6.123234e-17 1.000000e+00
    outer loop
      vertex -5.366374e+01 3.639877e+00 2.000000e+00
      vertex -6.412500e+01 3.484459e+00 2.000000e+00
      vertex -6.454707e+01 3.309631e+00 2.000000e+00
    endloop
  endfacet
  facet normal 0.000000e+00 6.123234e-17 1.000000e+00
    outer loop
      vertex -5.408580e+01 3.814705e+00 2.000000e+00
      vertex -5.444824e+01 4.092812e+00 2.000000e+00
      vertex -6.376256e+01 3.762566e+00 2.000000e+00
    endloop
  endfacet
  facet normal 0.000000e+00 6.123234e-17 1.000000e+00
    outer loop
      vertex -6.376256e+01 3.762566e+00 2.000000e+00
      vertex -5.444824e+01 4.092812e+00 2.000000e+00
      vertex -6.348446e+01 4.125000e+00 2.000000e+00
    endloop
  endfacet
  facet normal 0.000000e+00 6.123234e-17 1.000000e+00
    outer loop
      vertex -6.348446e+01 4.125000e+00 2.000000e+00
      vertex -5.444824e+01 4.092812e+00 2.000000e+00
      vertex -5.472635e+01 4.455254e+00 2.000000e+00
    endloop
  endfacet
  facet normal 0.000000e+00 6.123234e-17 1.000000e+00
    outer loop
      vertex -6.348446e+01 4.125000e+00 2.000000e+00
      vertex -5.472635e+01 4.455254e+00 2.000000e+00
      vertex -6.330963e+01 4.547066e+00 2.000000e+00
    endloop
  endfacet
  facet normal 0.000000e+00 6.123234e-17 1.000000e+00
    outer loop
      vertex -6.330963e+01 4.547066e+00 2.000000e+00
      vertex -5.472635e+01 4.455254e+00 2.000000e+00
      vertex -5.490117e+01 4.877319e+00 2.000000e+00
    endloop
  endfacet
  facet normal 0.000000e+00 6.123234e-17 1.000000e+00
    outer loop
      vertex -6.330963e+01 4.547066e+00 2.000000e+00
      vertex -5.490117e+01 4.877319e+00 2.000000e+00
      vertex -6.325000e+01 5.000000e+00 2.000000e+00
    endloop
  endfacet
  facet normal 0.000000e+00 6.123234e-17 1.000000e+00
    outer loop
      vertex -6.325000e+01 5.000000e+00 2.000000e+00
      vertex -5.490117e+01 4.877319e+00 2.000000e+00
      vertex -5.496080e+01 5.330254e+00 2.000000e+00
    endloop
  endfacet
  facet normal 0.000000e+00 6.123234e-17 1.000000e+00
    outer loop
      vertex -6.325000e+01 5.000000e+00 2.000000e+00
      vertex -5.496080e+01 5.330254e+00 2.000000e+00
      vertex -6.330963e+01 5.452934e+00 2.000000e+00
    endloop
  endfacet
  facet normal 0.000000e+00 6.123234e-17 1.000000e+00
    outer loop
      vertex -6.330963e+01 5.452934e+00 2.000000e+00
      vertex -5.496080e+01 5.330254e+00 2.000000e+00
      vertex -5.490117e+01 5.783188e+00 2.000000e+00
    endloop
  endfacet
  facet normal 0.000000e+00 6.123234e-17 1.000000e+00
    outer loop
      vertex -6.330963e+01 5.452934e+00 2.000000e+00
      vertex -5.490117e+01 5.783188e+00 2.000000e+00
      vertex -6.348446e+01 5.875000e+00 2.000000e+00
    endloop
  endfacet
  facet normal 0.000000e+00 6.123234e-17 1.000000e+00
    outer loop
      vertex -6.348446e+01 5.875000e+00 2.000000e+00
      vertex -5.490117e+01 5.783188e+00 2.000000e+00
      vertex -5.472635e+01 6.205254e+00 2.000000e+00
    endloop
  endfacet
  facet normal 0.000000e+00 6.123234e-17 1.000000e+00
    outer loop
      vertex -6.348446e+01 5.875000e+00 2.000000e+00
      vertex -5.472635e+01 6.205254e+00 2.000000e+00
      vertex -6.376256e+01 6.237434e+00 2.000000e+00
    endloop
  endfacet
  facet normal 0.000000e+00 6.123234e-17 1.000000e+00
    outer loop
      vertex -6.376256e+01 6.237434e+00 2.000000e+00
      vertex -5.472635e+01 6.205254e+00 2.000000e+00
      vertex -5.444824e+01 6.567688e+00 2.000000e+00
    endloop
  endfacet
  facet normal 0.000000e+00 6.123234e-17 1.000000e+00
    outer loop
      vertex -6.376256e+01 6.237434e+00 2.000000e+00
      vertex -5.444824e+01 6.567688e+00 2.000000e+00
      vertex -6.412500e+01 6.515541e+00 2.000000e+00
    endloop
  endfacet
  facet normal 0.000000e+00 6.123234e-17 1.000000e+00
    outer loop
      vertex -6.412500e+01 6.515541e+00 2.000000e+00
      vertex -5.444824e+01 6.567688e+00 2.000000e+00
      vertex -6.454707e+01 6.690369e+00 2.000000e+00
    endloop
  endfacet
  facet normal 0.000000e+00 6.123234e-17 1.000000e+00
    outer loop
      vertex -6.454707e+01 6.690369e+00 2.000000e+00
      vertex -5.444824e+01 6.567688e+00 2.000000e+00
      vertex -5.408580e+01 6.845795e+00 2.000000e+00
    endloop
  endfacet
  facet normal 0.000000e+00 6.123234e-17 1.000000e+00
    outer loop
      vertex -6.454707e+01 6.690369e+00 2.000000e+00
      vertex -5.408580e+01 6.845795e+00 2.000000e+00
      vertex -5.366374e+01 7.020622e+00 2.000000e+00
    endloop
  endfacet
  facet normal 0.000000e+00 6.123234e-17 1.000000e+00
    outer loop
      vertex -6.454707e+01 6.690369e+00 2.000000e+00
      vertex -5.366374e+01 7.020622e+00 2.000000e+00
      vertex -6.500000e+01 6.750000e+00 2.000000e+00
    endloop
  endfacet
  facet normal 0.000000e+00 6.123234e-17 1.000000e+00
    outer loop
      vertex -6.500000e+01 6.750000e+00 2.000000e+00
      vertex -5.366374e+01 7.020622e+00 2.000000e+00
      vertex -5.321080e+01 7.080254e+00 2.000000e+00
    endloop
  endfacet
  facet normal 0.000000e+00 6.123234e-17 1.000000e+00
    outer loop
      vertex -6.500000e+01 6.750000e+00 2.000000e+00
      vertex -5.321080e+01 7.080254e+00 2.000000e+00
      vertex -7.500000e+01 1.000000e+01 2.000000e+00
    endloop
  endfacet
  facet normal 0.000000e+00 6.123234e-17 1.000000e+00
    outer loop
      vertex -7.500000e+01 1.000000e+01 2.000000e+00
      vertex -5.321080e+01 7.080254e+00 2.000000e+00
      vertex 7.500000e+01 1.000000e+01 2.000000e+00
    endloop
  endfacet
  facet normal 0.000000e+00 6.123234e-17 1.000000e+00
    outer loop
      vertex 7.500000e+01 1.000000e+01 2.000000e+00
      vertex -5.321080e+01 7.080254e+00 2.000000e+00
      vertex 6.828920e+01 7.080254e+00 2.000000e+00
    endloop
  endfacet
  facet normal 0.000000e+00 6.123234e-17 1.000000e+00
    outer loop
      vertex 7.500000e+01 1.000000e+01 2.000000e+00
      vertex 6.828920e+01 7.080254e+00 2.000000e+00
      vertex 6.874213e+01 7.020622e+00 2.000000e+00
    endloop
  endfacet
  facet normal 0.000000e+00 6.123234e-17 1.000000e+00
    outer loop
      vertex 6.874213e+01 7.020622e+00 2.000000e+00
      vertex 6.916420e+01 6.845795e+00 2.000000e+00
      vertex 7.500000e+01 1.000000e+01 2.000000e+00
    endloop
  endfacet
  facet normal 0.000000e+00 6.123234e-17 1.000000e+00
    outer loop
      vertex 7.500000e+01 1.000000e+01 2.000000e+00
      vertex 6.916420e+01 6.845795e+00 2.000000e+00
      vertex 6.952663e+01 6.567688e+00 2.000000e+00
    endloop
  endfacet
  facet normal 0.000000e+00 6.123234e-17 1.000000e+00
    outer loop
      vertex 7.500000e+01 1.000000e+01 2.000000e+00
      vertex 6.952663e+01 6.567688e+00 2.000000e+00
      vertex 6.980474e+01 6.205254e+00 2.000000e+00
    endloop
  endfacet
  facet normal 0.000000e+00 6.123234e-17 1.000000e+00
    outer loop
      vertex 6.980474e+01 6.205254e+00 2.000000e+00
      vertex 6.997957e+01 5.783188e+00 2.000000e+00
      vertex 7.500000e+01 1.000000e+01 2.000000e+00
    endloop
  endfacet
  facet normal 0.000000e+00 6.123234e-17 1.000000e+00
    outer loop
      vertex 7.500000e+01 1.000000e+01 2.000000e+00
      vertex 6.997957e+01 5.783188e+00 2.000000e+00
      vertex 7.003920e+01 5.330254e+00 2.000000e+00
    endloop
  endfacet
  facet normal 0.000000e+00 6.123234e-17 1.000000e+00
    outer loop
      vertex 7.500000e+01 1.000000e+01 2.000000e+00
      vertex 7.003920e+01 5.330254e+00 2.000000e+00
      vertex 6.997957e+01 4.877319e+00 2.000000e+00
    endloop
  endfacet
  facet normal 0.000000e+00 6.123234e-17 1.000000e+00
    outer loop
      vertex 6.997957e+01 4.877319e+00 2.000000e+00
      vertex 6.980474e+01 4.455254e+00 2.000000e+00
      vertex 7.500000e+01 1.000000e+01 2.000000e+00
    endloop
  endfacet
  facet normal 0.000000e+00 6.123234e-17 1.000000e+00
    outer loop
      vertex 7.500000e+01 1.000000e+01 2.000000e+00
      vertex 6.980474e+01 4.455254e+00 2.000000e+00
      vertex 7.500000e+01 -1.000000e+01 2.000000e+00
    endloop
  endfacet
  facet normal 0.000000e+00 6.123234e-17 1.000000e+00
    outer loop
      vertex 7.500000e+01 -1.000000e+01 2.000000e+00
      vertex 6.980474e+01 4.455254e+00 2.000000e+00
      vertex 6.952663e+01 4.092812e+00 2.000000e+00
    endloop
  endfacet
  facet normal 0.000000e+00 6.123234e-17 1.000000e+00
    outer loop
      vertex 7.500000e+01 -1.000000e+01 2.000000e+00
      vertex 6.952663e+01 4.092812e+00 2.000000e+00
      vertex 6.916420e+01 3.814705e+00 2.000000e+00
    endloop
  endfacet
  facet normal 0.000000e+00 6.123234e-17 1.000000e+00
    outer loop
      vertex 6.916420e+01 3.814705e+00 2.000000e+00
      vertex 6.874213e+01 3.639877e+00 2.000000e+00
      vertex 7.500000e+01 -1.000000e+01 2.000000e+00
    endloop
  endfacet
  facet normal 0.000000e+00 6.123234e-17 1.000000e+00
    outer loop
      vertex -6.669037e+01 4.547066e+00 2.000000e+00
      vertex -6.675000e+01 5.000000e+00 2.000000e+00
      vertex -7.500000e+01 1.000000e+01 2.000000e+00
    endloop
  endfacet
  facet normal 0.000000e+00 6.123234e-17 1.000000e+00
    outer loop
      vertex -7.500000e+01 1.000000e+01 2.000000e+00
      vertex -6.675000e+01 5.000000e+00 2.000000e+00
      vertex -6.669037e+01 5.452934e+00 2.000000e+00
    endloop
  endfacet
  facet normal 0.000000e+00 6.123234e-17 1.000000e+00
    outer loop
      vertex -7.500000e+01 1.000000e+01 2.000000e+00
      vertex -6.669037e+01 5.452934e+00 2.000000e+00
      vertex -6.651554e+01 5.875000e+00 2.000000e+00
    endloop
  endfacet
  facet normal 0.000000e+00 6.123234e-17 1.000000e+00
    outer loop
      vertex -6.651554e+01 5.875000e+00 2.000000e+00
      vertex -6.623744e+01 6.237434e+00 2.000000e+00
      vertex -7.500000e+01 1.000000e+01 2.000000e+00
    endloop
  endfacet
  facet normal 0.000000e+00 6.123234e-17 1.000000e+00
    outer loop
      vertex -7.500000e+01 1.000000e+01 2.000000e+00
      vertex -6.623744e+01 6.237434e+00 2.000000e+00
      vertex -6.587500e+01 6.515541e+00 2.000000e+00
    endloop
  endfacet
  facet normal 0.000000e+00 6.123234e-17 1.000000e+00
    outer loop
      vertex -7.500000e+01 1.000000e+01 2.000000e+00
      vertex -6.587500e+01 6.515541e+00 2.000000e+00
      vertex -6.545293e+01 6.690369e+00 2.000000e+00
    endloop
  endfacet
  facet normal 0.000000e+00 6.123234e-17 1.000000e+00
    outer loop
      vertex -6.545293e+01 6.690369e+00 2.000000e+00
      vertex -6.500000e+01 6.750000e+00 2.000000e+00
      vertex -7.500000e+01 1.000000e+01 2.000000e+00
    endloop
  endfacet
  facet normal 0.000000e+00 6.123234e-17 1.000000e+00
    outer loop
      vertex -7.500000e+01 -1.000000e+01 2.000000e+00
      vertex -6.623744e+01 3.762566e+00 2.000000e+00
      vertex -7.500000e+01 1.000000e+01 2.000000e+00
    endloop
  endfacet
  facet normal 0.000000e+00 6.123234e-17 1.000000e+00
    outer loop
      vertex -7.500000e+01 1.000000e+01 2.000000e+00
      vertex -6.623744e+01 3.762566e+00 2.000000e+00
      vertex -6.651554e+01 4.125000e+00 2.000000e+00
    endloop
  endfacet
  facet normal 0.000000e+00 6.123234e-17 1.000000e+00
    outer loop
      vertex -7.500000e+01 1.000000e+01 2.000000e+00
      vertex -6.651554e+01 4.125000e+00 2.000000e+00
      vertex -6.669037e+01 4.547066e+00 2.000000e+00
    endloop
  endfacet
  facet normal -0.000000e+00 -6.123234e-17 -1.000000e+00
    outer loop
      vertex -5.366374e+01 7.020622e+00 1.824343e-16
      vertex -6.500000e+01 6.750000e+00 1.990051e-16
      vertex -5.321080e+01 7.080254e+00 1.787829e-16
    endloop
  endfacet
  facet normal 0.000000e+00 -6.123234e-17 -1.000000e+00
    outer loop
      vertex -5.321080e+01 7.080254e+00 1.787829e-16
      vertex -6.500000e+01 6.750000e+00 1.990051e-16
      vertex -7.500000e+01 1.000000e+01 0.000000e+00
    endloop
  endfacet
  facet normal 0.000000e+00 -6.123234e-17 -1.000000e+00
    outer loop
      vertex -5.321080e+01 7.080254e+00 1.787829e-16
      vertex -7.500000e+01 1.000000e+01 0.000000e+00
      vertex 7.500000e+01 1.000000e+01 0.000000e+00
    endloop
  endfacet
  facet normal 0.000000e+00 -6.123234e-17 -1.000000e+00
    outer loop
      vertex -6.500000e+01 6.750000e+00 1.990051e-16
      vertex -5.366374e+01 7.020622e+00 1.824343e-16
      vertex -6.454707e+01 6.690369e+00 2.026565e-16
    endloop
  endfacet
  facet normal 0.000000e+00 -6.123234e-17 -1.000000e+00
    outer loop
      vertex -6.454707e+01 6.690369e+00 2.026565e-16
      vertex -5.366374e+01 7.020622e+00 1.824343e-16
      vertex -5.408580e+01 6.845795e+00 1.931394e-16
    endloop
  endfacet
  facet normal 0.000000e+00 -6.123234e-17 -1.000000e+00
    outer loop
      vertex -6.454707e+01 6.690369e+00 2.026565e-16
      vertex -5.408580e+01 6.845795e+00 1.931394e-16
      vertex -5.444824e+01 6.567688e+00 2.101685e-16
    endloop
  endfacet
  facet normal 0.000000e+00 -6.123234e-17 -1.000000e+00
    outer loop
      vertex -5.472635e+01 6.205254e+00 2.323612e-16
      vertex -6.376256e+01 6.237434e+00 2.303907e-16
      vertex -5.444824e+01 6.567688e+00 2.101685e-16
    endloop
  endfacet
  facet normal 0.000000e+00 -6.123234e-17 -1.000000e+00
    outer loop
      vertex -5.444824e+01 6.567688e+00 2.101685e-16
      vertex -6.376256e+01 6.237434e+00 2.303907e-16
      vertex -6.412500e+01 6.515541e+00 2.133616e-16
    endloop
  endfacet
  facet normal 0.000000e+00 -6.123234e-17 -1.000000e+00
    outer loop
      vertex -5.444824e+01 6.567688e+00 2.101685e-16
      vertex -6.412500e+01 6.515541e+00 2.133616e-16
      vertex -6.454707e+01 6.690369e+00 2.026565e-16
    endloop
  endfacet
  facet normal 0.000000e+00 -6.123234e-17 -1.000000e+00
    outer loop
      vertex -6.376256e+01 6.237434e+00 2.303907e-16
      vertex -5.472635e+01 6.205254e+00 2.323612e-16
      vertex -6.348446e+01 5.875000e+00 2.525834e-16
    endloop
  endfacet
  facet normal 0.000000e+00 -6.123234e-17 -1.000000e+00
    outer loop
      vertex -6.348446e+01 5.875000e+00 2.525834e-16
      vertex -5.472635e+01 6.205254e+00 2.323612e-16
      vertex -5.490117e+01 5.783188e+00 2.582053e-16
    endloop
  endfacet
  facet normal 0.000000e+00 -6.123234e-17 -1.000000e+00
    outer loop
      vertex -6.348446e+01 5.875000e+00 2.525834e-16
      vertex -5.490117e+01 5.783188e+00 2.582053e-16
      vertex -6.330963e+01 5.452934e+00 2.784275e-16
    endloop
  endfacet
  facet normal 0.000000e+00 -6.123234e-17 -1.000000e+00
    outer loop
      vertex -6.330963e+01 5.452934e+00 2.784275e-16
      vertex -5.490117e+01 5.783188e+00 2.582053e-16
      vertex -5.496080e+01 5.330254e+00 2.859395e-16
    endloop
  endfacet
  facet normal 0.000000e+00 -6.123234e-17 -1.000000e+00
    outer loop
      vertex -6.330963e+01 5.452934e+00 2.784275e-16
      vertex -5.496080e+01 5.330254e+00 2.859395e-16
      vertex -6.325000e+01 5.000000e+00 3.061617e-16
    endloop
  endfacet
  facet normal 0.000000e+00 -6.123234e-17 -1.000000e+00
    outer loop
      vertex -6.325000e+01 5.000000e+00 3.061617e-16
      vertex -5.496080e+01 5.330254e+00 2.859395e-16
      vertex -5.490117e+01 4.877319e+00 3.136737e-16
    endloop
  endfacet
  facet normal 0.000000e+00 -6.123234e-17 -1.000000e+00
    outer loop
      vertex -6.325000e+01 5.000000e+00 3.061617e-16
      vertex -5.490117e+01 4.877319e+00 3.136737e-16
      vertex -6.330963e+01 4.547066e+00 3.338959e-16
    endloop
  endfacet
  facet normal 0.000000e+00 -6.123234e-17 -1.000000e+00
    outer loop
      vertex -6.330963e+01 4.547066e+00 3.338959e-16
      vertex -5.490117e+01 4.877319e+00 3.136737e-16
      vertex -5.472635e+01 4.455254e+00 3.395178e-16
    endloop
  endfacet
  facet normal 0.000000e+00 -6.123234e-17 -1.000000e+00
    outer loop
      vertex -6.330963e+01 4.547066e+00 3.338959e-16
      vertex -5.472635e+01 4.455254e+00 3.395178e-16
      vertex -6.348446e+01 4.125000e+00 3.597400e-16
    endloop
  endfacet
  facet normal 0.000000e+00 -6.123234e-17 -1.000000e+00
    outer loop
      vertex -6.348446e+01 4.125000e+00 3.597400e-16
      vertex -5.472635e+01 4.455254e+00 3.395178e-16
      vertex -5.444824e+01 4.092812e+00 3.617110e-16
    endloop
  endfacet
  facet normal 0.000000e+00 -6.123234e-17 -1.000000e+00
    outer loop
      vertex -6.348446e+01 4.125000e+00 3.597400e-16
      vertex -5.444824e+01 4.092812e+00 3.617110e-16
      vertex -6.376256e+01 3.762566e+00 3.819327e-16
    endloop
  endfacet
  facet normal 0.000000e+00 -6.123234e-17 -1.000000e+00
    outer loop
      vertex -6.376256e+01 3.762566e+00 3.819327e-16
      vertex -5.444824e+01 4.092812e+00 3.617110e-16
      vertex -5.408580e+01 3.814705e+00 3.787401e-16
    endloop
  endfacet
  facet normal 0.000000e+00 -6.123234e-17 -1.000000e+00
    outer loop
      vertex -6.376256e+01 3.762566e+00 3.819327e-16
      vertex -5.408580e+01 3.814705e+00 3.787401e-16
      vertex -5.366374e+01 3.639877e+00 3.894452e-16
    endloop
  endfacet
  facet normal 0.000000e+00 -6.123234e-17 -1.000000e+00
    outer loop
      vertex -5.321080e+01 3.580254e+00 3.930961e-16
      vertex -6.454707e+01 3.309631e+00 4.096669e-16
      vertex -5.366374e+01 3.639877e+00 3.894452e-16
    endloop
  endfacet
  facet normal 0.000000e+00 -6.123234e-17 -1.000000e+00
    outer loop
      vertex -5.366374e+01 3.639877e+00 3.894452e-16
      vertex -6.454707e+01 3.309631e+00 4.096669e-16
      vertex -6.412500e+01 3.484459e+00 3.989618e-16
    endloop
  endfacet
  facet normal 0.000000e+00 -6.123234e-17 -1.000000e+00
    outer loop
      vertex -5.366374e+01 3.639877e+00 3.894452e-16
      vertex -6.412500e+01 3.484459e+00 3.989618e-16
      vertex -6.376256e+01 3.762566e+00 3.819327e-16
    endloop
  endfacet
  facet normal 0.000000e+00 -6.123234e-17 -1.000000e+00
    outer loop
      vertex 6.828920e+01 3.580254e+00 3.930961e-16
      vertex 7.500000e+01 -1.000000e+01 1.224647e-15
      vertex -5.321080e+01 3.580254e+00 3.930961e-16
    endloop
  endfacet
  facet normal 0.000000e+00 -6.123234e-17 -1.000000e+00
    outer loop
      vertex -5.321080e+01 3.580254e+00 3.930961e-16
      vertex 7.500000e+01 -1.000000e+01 1.224647e-15
      vertex -7.500000e+01 -1.000000e+01 1.224647e-15
    endloop
  endfacet
  facet normal 0.000000e+00 -6.123234e-17 -1.000000e+00
    outer loop
      vertex -5.321080e+01 3.580254e+00 3.930961e-16
      vertex -7.500000e+01 -1.000000e+01 1.224647e-15
      vertex -6.500000e+01 3.250000e+00 4.133183e-16
    endloop
  endfacet
  facet normal 0.000000e+00 -6.123234e-17 -1.000000e+00
    outer loop
      vertex -6.500000e+01 3.250000e+00 4.133183e-16
      vertex -7.500000e+01 -1.000000e+01 1.224647e-15
      vertex -6.545293e+01 3.309631e+00 4.096669e-16
    endloop
  endfacet
  facet normal 0.000000e+00 -6.123234e-17 -1.000000e+00
    outer loop
      vertex -6.545293e+01 3.309631e+00 4.096669e-16
      vertex -7.500000e+01 -1.000000e+01 1.224647e-15
      vertex -6.587500e+01 3.484459e+00 3.989618e-16
    endloop
  endfacet
  facet normal 0.000000e+00 -6.123234e-17 -1.000000e+00
    outer loop
      vertex -6.587500e+01 3.484459e+00 3.989618e-16
      vertex -7.500000e+01 -1.000000e+01 1.224647e-15
      vertex -6.623744e+01 3.762566e+00 3.819327e-16
    endloop
  endfacet
  facet normal 0.000000e+00 -6.123234e-17 -1.000000e+00
    outer loop
      vertex -6.623744e+01 3.762566e+00 3.819327e-16
      vertex -7.500000e+01 -1.000000e+01 1.224647e-15
      vertex -7.500000e+01 1.000000e+01 0.000000e+00
    endloop
  endfacet
  facet normal 0.000000e+00 -6.123234e-17 -1.000000e+00
    outer loop
      vertex -6.623744e+01 3.762566e+00 3.819327e-16
      vertex -7.500000e+01 1.000000e+01 0.000000e+00
      vertex -6.651554e+01 4.125000e+00 3.597400e-16
    endloop
  endfacet
  facet normal 0.000000e+00 -6.123234e-17 -1.000000e+00
    outer loop
      vertex -6.651554e+01 4.125000e+00 3.597400e-16
      vertex -7.500000e+01 1.000000e+01 0.000000e+00
      vertex -6.669037e+01 4.547066e+00 3.338959e-16
    endloop
  endfacet
  facet normal 0.000000e+00 -6.123234e-17 -1.000000e+00
    outer loop
      vertex -6.669037e+01 4.547066e+00 3.338959e-16
      vertex -7.500000e+01 1.000000e+01 0.000000e+00
      vertex -6.675000e+01 5.000000e+00 3.061617e-16
    endloop
  endfacet
  facet normal 0.000000e+00 -6.123234e-17 -1.000000e+00
    outer loop
      vertex -6.675000e+01 5.000000e+00 3.061617e-16
      vertex -7.500000e+01 1.000000e+01 0.000000e+00
      vertex -6.669037e+01 5.452934e+00 2.784275e-16
    endloop
  endfacet
  facet normal 0.000000e+00 -6.123234e-17 -1.000000e+00
    outer loop
      vertex -6.669037e+01 5.452934e+00 2.784275e-16
      vertex -7.500000e+01 1.000000e+01 0.000000e+00
      vertex -6.651554e+01 5.875000e+00 2.525834e-16
    endloop
  endfacet
  facet normal 0.000000e+00 -6.123234e-17 -1.000000e+00
    outer loop
      vertex -6.651554e+01 5.875000e+00 2.525834e-16
      vertex -7.500000e+01 1.000000e+01 0.000000e+00
      vertex -6.623744e+01 6.237434e+00 2.303907e-16
    endloop
  endfacet
  facet normal 0.000000e+00 -6.123234e-17 -1.000000e+00
    outer loop
      vertex -6.623744e+01 6.237434e+00 2.303907e-16
      vertex -7.500000e+01 1.000000e+01 0.000000e+00
      vertex -6.587500e+01 6.515541e+00 2.133616e-16
    endloop
  endfacet
  facet normal 0.000000e+00 -6.123234e-17 -1.000000e+00
    outer loop
      vertex -6.587500e+01 6.515541e+00 2.133616e-16
      vertex -7.500000e+01 1.000000e+01 0.000000e+00
      vertex -6.545293e+01 6.690369e+00 2.026565e-16
    endloop
  endfacet
  facet normal 0.000000e+00 -6.123234e-17 -1.000000e+00
    outer loop
      vertex -6.545293e+01 6.690369e+00 2.026565e-16
      vertex -7.500000e+01 1.000000e+01 0.000000e+00
      vertex -6.500000e+01 6.750000e+00 1.990051e-16
    endloop
  endfacet
  facet normal 0.000000e+00 -6.123234e-17 -1.000000e+00
    outer loop
      vertex 6.828920e+01 3.580254e+00 3.930961e-16
      vertex 6.874213e+01 3.639877e+00 3.894452e-16
      vertex 7.500000e+01 -1.000000e+01 1.224647e-15
    endloop
  endfacet
  facet normal 0.000000e+00 -6.123234e-17 -1.000000e+00
    outer loop
      vertex 7.500000e+01 -1.000000e+01 1.224647e-15
      vertex 6.874213e+01 3.639877e+00 3.894452e-16
      vertex 6.916420e+01 3.814705e+00 3.787401e-16
    endloop
  endfacet
  facet normal 0.000000e+00 -6.123234e-17 -1.000000e+00
    outer loop
      vertex 7.500000e+01 -1.000000e+01 1.224647e-15
      vertex 6.916420e+01 3.814705e+00 3.787401e-16
      vertex 6.952663e+01 4.092812e+00 3.617110e-16
    endloop
  endfacet
  facet normal 0.000000e+00 -6.123234e-17 -1.000000e+00
    outer loop
      vertex 6.952663e+01 4.092812e+00 3.617110e-16
      vertex 6.980474e+01 4.455254e+00 3.395178e-16
      vertex 7.500000e+01 -1.000000e+01 1.224647e-15
    endloop
  endfacet
  facet normal 0.000000e+00 -6.123234e-17 -1.000000e+00
    outer loop
      vertex 7.500000e+01 -1.000000e+01 1.224647e-15
      vertex 6.980474e+01 4.455254e+00 3.395178e-16
      vertex 7.500000e+01 1.000000e+01 0.000000e+00
    endloop
  endfacet
  facet normal 0.000000e+00 -6.123234e-17 -1.000000e+00
    outer loop
      vertex 7.500000e+01 1.000000e+01 0.000000e+00
      vertex 6.980474e+01 4.455254e+00 3.395178e-16
      vertex 6.997957e+01 4.877319e+00 3.136737e-16
    endloop
  endfacet
  facet normal 0.000000e+00 -6.123234e-17 -1.000000e+00
    outer loop
      vertex 7.500000e+01 1.000000e+01 0.000000e+00
      vertex 6.997957e+01 4.877319e+00 3.136737e-16
      vertex 7.003920e+01 5.330254e+00 2.859395e-16
    endloop
  endfacet
  facet normal 0.000000e+00 -6.123234e-17 -1.000000e+00
    outer loop
      vertex 7.003920e+01 5.330254e+00 2.859395e-16
      vertex 6.997957e+01 5.783188e+00 2.582053e-16
      vertex 7.500000e+01 1.000000e+01 0.000000e+00
    endloop
  endfacet
  facet normal 0.000000e+00 -6.123234e-17 -1.000000e+00
    outer loop
      vertex 7.500000e+01 1.000000e+01 0.000000e+00
      vertex 6.997957e+01 5.783188e+00 2.582053e-16
      vertex 6.980474e+01 6.205254e+00 2.323612e-16
    endloop
  endfacet
  facet normal 0.000000e+00 -6.123234e-17 -1.000000e+00
    outer loop
      vertex 7.500000e+01 1.000000e+01 0.000000e+00
      vertex 6.980474e+01 6.205254e+00 2.323612e-16
      vertex 6.952663e+01 6.567688e+00 2.101685e-16
    endloop
  endfacet
  facet normal 0.000000e+00 -6.123234e-17 -1.000000e+00
    outer loop
      vertex 6.952663e+01 6.567688e+00 2.101685e-16
      vertex 6.916420e+01 6.845795e+00 1.931394e-16
      vertex 7.500000e+01 1.000000e+01 0.000000e+00
    endloop
  endfacet
  facet normal 0.000000e+00 -6.123234e-17 -1.000000e+00
    outer loop
      vertex 7.500000e+01 1.000000e+01 0.000000e+00
      vertex 6.916420e+01 6.845795e+00 1.931394e-16
      vertex 6.874213e+01 7.020622e+00 1.824343e-16
    endloop
  endfacet
  facet normal 0.000000e+00 -6.123234e-17 -1.000000e+00
    outer loop
      vertex 7.500000e+01 1.000000e+01 0.000000e+00
      vertex 6.874213e+01 7.020622e+00 1.824343e-16
      vertex 6.828920e+01 7.080254e+00 1.787829e-16
    endloop
  endfacet
  facet normal -0.000000e+00 -6.123234e-17 -1.000000e+00
    outer loop
      vertex 6.828920e+01 7.080254e+00 1.787829e-16
      vertex -5.321080e+01 7.080254e+00 1.787829e-16
      vertex 7.500000e+01 1.000000e+01 0.000000e+00
    endloop
  endfacet
  facet normal 0.000000e+00 -6.123234e-17 -1.000000e+00
    outer loop
      vertex -6.500000e+01 3.250000e+00 4.133183e-16
      vertex -6.454707e+01 3.309631e+00 4.096669e-16
      vertex -5.321080e+01 3.580254e+00 3.930961e-16
    endloop
  endfacet
endsolid Default
