solid Default
  facet normal 0.000000e+00 -1.000000e+00 6.123234e-17
    outer loop
      vertex 5.300000e+01 6.000000e+00 2.000000e+00
      vertex 6.000000e+01 6.000000e+00 2.000000e+00
      vertex 5.300000e+01 6.000000e+00 9.000000e+00
    endloop
  endfacet
  facet normal 0.000000e+00 -1.000000e+00 6.123234e-17
    outer loop
      vertex 5.300000e+01 6.000000e+00 9.000000e+00
      vertex 6.000000e+01 6.000000e+00 2.000000e+00
      vertex 6.000000e+01 6.000000e+00 9.000000e+00
    endloop
  endfacet
  facet normal -1.000000e+00 0.000000e+00 0.000000e+00
    outer loop
      vertex 5.300000e+01 8.000000e+00 2.000000e+00
      vertex 5.300000e+01 6.000000e+00 2.000000e+00
      vertex 5.300000e+01 8.000000e+00 9.000000e+00
    endloop
  endfacet
  facet normal -1.000000e+00 0.000000e+00 0.000000e+00
    outer loop
      vertex 5.300000e+01 8.000000e+00 9.000000e+00
      vertex 5.300000e+01 6.000000e+00 2.000000e+00
      vertex 5.300000e+01 6.000000e+00 9.000000e+00
    endloop
  endfacet
  facet normal 0.000000e+00 1.000000e+00 -6.123234e-17
    outer loop
      vertex 6.000000e+01 8.000000e+00 2.000000e+00
      vertex 5.300000e+01 8.000000e+00 2.000000e+00
      vertex 6.000000e+01 8.000000e+00 9.000000e+00
    endloop
  endfacet
  facet normal 0.000000e+00 1.000000e+00 -6.123234e-17
    outer loop
      vertex 6.000000e+01 8.000000e+00 9.000000e+00
      vertex 5.300000e+01 8.000000e+00 2.000000e+00
      vertex 5.300000e+01 8.000000e+00 9.000000e+00
    endloop
  endfacet
  facet normal 1.000000e+00 0.000000e+00 0.000000e+00
    outer loop
      vertex 6.000000e+01 6.000000e+00 2.000000e+00
      vertex 6.000000e+01 8.000000e+00 2.000000e+00
      vertex 6.000000e+01 6.000000e+00 9.000000e+00
    endloop
  endfacet
  facet normal 1.000000e+00 0.000000e+00 0.000000e+00
    outer loop
      vertex 6.000000e+01 6.000000e+00 9.000000e+00
      vertex 6.000000e+01 8.000000e+00 2.000000e+00
      vertex 6.000000e+01 8.000000e+00 9.000000e+00
    endloop
  endfacet
  facet normal 0.000000e+00 6.123234e-17 1.000000e+00
    outer loop
      vertex 6.000000e+01 6.000000e+00 9.000000e+00
      vertex 6.000000e+01 8.000000e+00 9.000000e+00
      vertex 5.300000e+01 6.000000e+00 9.000000e+00
    endloop
  endfacet
  facet normal 0.000000e+00 6.123234e-17 1.000000e+00
    outer loop
      vertex 5.300000e+01 6.000000e+00 9.000000e+00
      vertex 6.000000e+01 8.000000e+00 9.000000e+00
      vertex 5.300000e+01 8.000000e+00 9.000000e+00
    endloop
  endfacet
  facet normal -1.000000e+00 0.000000e+00 0.000000e+00
    outer loop
      vertex -6.000000e+01 8.000000e+00 2.000000e+00
      vertex -6.000000e+01 6.000000e+00 2.000000e+00
      vertex -6.000000e+01 8.000000e+00 9.000000e+00
    endloop
  endfacet
  facet normal -1.000000e+00 0.000000e+00 0.000000e+00
    outer loop
      vertex -6.000000e+01 8.000000e+00 9.000000e+00
      vertex -6.000000e+01 6.000000e+00 2.000000e+00
      vertex -6.000000e+01 6.000000e+00 9.000000e+00
    endloop
  endfacet
  facet normal 0.000000e+00 1.000000e+00 -6.123234e-17
    outer loop
      vertex -5.300000e+01 8.000000e+00 2.000000e+00
      vertex -6.000000e+01 8.000000e+00 2.000000e+00
      vertex -5.300000e+01 8.000000e+00 9.000000e+00
    endloop
  endfacet
  facet normal 0.000000e+00 1.000000e+00 -6.123234e-17
    outer loop
      vertex -5.300000e+01 8.000000e+00 9.000000e+00
      vertex -6.000000e+01 8.000000e+00 2.000000e+00
      vertex -6.000000e+01 8.000000e+00 9.000000e+00
    endloop
  endfacet
  facet normal 1.000000e+00 0.000000e+00 0.000000e+00
    outer loop
      vertex -5.300000e+01 6.000000e+00 2.000000e+00
      vertex -5.300000e+01 8.000000e+00 2.000000e+00
      vertex -5.300000e+01 6.000000e+00 9.000000e+00
    endloop
  endfacet
  facet normal 1.000000e+00 0.000000e+00 0.000000e+00
    outer loop
      vertex -5.300000e+01 6.000000e+00 9.000000e+00
      vertex -5.300000e+01 8.000000e+00 2.000000e+00
      vertex -5.300000e+01 8.000000e+00 9.000000e+00
    endloop
  endfacet
  facet normal 0.000000e+00 -1.000000e+00 6.123234e-17
    outer loop
      vertex -6.000000e+01 6.000000e+00 2.000000e+00
      vertex -5.300000e+01 6.000000e+00 2.000000e+00
      vertex -6.000000e+01 6.000000e+00 9.000000e+00
    endloop
  endfacet
  facet normal 0.000000e+00 -1.000000e+00 6.123234e-17
    outer loop
      vertex -6.000000e+01 6.000000e+00 9.000000e+00
      vertex -5.300000e+01 6.000000e+00 2.000000e+00
      vertex -5.300000e+01 6.000000e+00 9.000000e+00
    endloop
  endfacet
  facet normal 0.000000e+00 6.123234e-17 1.000000e+00
    outer loop
      vertex -5.300000e+01 6.000000e+00 9.000000e+00
      vertex -5.300000e+01 8.000000e+00 9.000000e+00
      vertex -6.000000e+01 6.000000e+00 9.000000e+00
    endloop
  endfacet
  facet normal 0.000000e+00 6.123234e-17 1.000000e+00
    outer loop
      vertex -6.000000e+01 6.000000e+00 9.000000e+00
      vertex -5.300000e+01 8.000000e+00 9.000000e+00
      vertex -6.000000e+01 8.000000e+00 9.000000e+00
    endloop
  endfacet
  facet normal 9.914449e-01 1.305262e-01 -7.992423e-18
    outer loop
      vertex -6.669037e+01 -5.452934e+00 2.000000e+00
      vertex -6.669037e+01 -5.452934e+00 9.462193e-16
      vertex -6.675000e+01 -5.000000e+00 2.000000e+00
    endloop
  endfacet
  facet normal 9.914449e-01 1.305262e-01 -7.992423e-18
    outer loop
      vertex -6.675000e+01 -5.000000e+00 2.000000e+00
      vertex -6.669037e+01 -5.452934e+00 9.462193e-16
      vertex -6.675000e+01 -5.000000e+00 9.184851e-16
    endloop
  endfacet
  facet normal 9.914449e-01 -1.305262e-01 7.992423e-18
    outer loop
      vertex -6.675000e+01 -5.000000e+00 2.000000e+00
      vertex -6.675000e+01 -5.000000e+00 9.184851e-16
      vertex -6.669037e+01 -4.547066e+00 2.000000e+00
    endloop
  endfacet
  facet normal 9.914449e-01 -1.305262e-01 7.992423e-18
    outer loop
      vertex -6.669037e+01 -4.547066e+00 2.000000e+00
      vertex -6.675000e+01 -5.000000e+00 9.184851e-16
      vertex -6.669037e+01 -4.547066e+00 8.907509e-16
    endloop
  endfacet
  facet normal 9.238795e-01 -3.826834e-01 2.343260e-17
    outer loop
      vertex -6.669037e+01 -4.547066e+00 2.000000e+00
      vertex -6.669037e+01 -4.547066e+00 8.907509e-16
      vertex -6.651554e+01 -4.125000e+00 2.000000e+00
    endloop
  endfacet
  facet normal 9.238795e-01 -3.826834e-01 2.343260e-17
    outer loop
      vertex -6.651554e+01 -4.125000e+00 2.000000e+00
      vertex -6.669037e+01 -4.547066e+00 8.907509e-16
      vertex -6.651554e+01 -4.125000e+00 8.649068e-16
    endloop
  endfacet
  facet normal 7.933533e-01 -6.087614e-01 3.727589e-17
    outer loop
      vertex -6.651554e+01 -4.125000e+00 2.000000e+00
      vertex -6.651554e+01 -4.125000e+00 8.649068e-16
      vertex -6.623744e+01 -3.762566e+00 2.000000e+00
    endloop
  endfacet
  facet normal 7.933533e-01 -6.087614e-01 3.727589e-17
    outer loop
      vertex -6.623744e+01 -3.762566e+00 2.000000e+00
      vertex -6.651554e+01 -4.125000e+00 8.649068e-16
      vertex -6.623744e+01 -3.762566e+00 8.427141e-16
    endloop
  endfacet
  facet normal 6.087614e-01 -7.933533e-01 4.857888e-17
    outer loop
      vertex -6.623744e+01 -3.762566e+00 2.000000e+00
      vertex -6.623744e+01 -3.762566e+00 8.427141e-16
      vertex -6.587500e+01 -3.484459e+00 2.000000e+00
    endloop
  endfacet
  facet normal 6.087614e-01 -7.933533e-01 4.857888e-17
    outer loop
      vertex -6.587500e+01 -3.484459e+00 2.000000e+00
      vertex -6.623744e+01 -3.762566e+00 8.427141e-16
      vertex -6.587500e+01 -3.484459e+00 8.256850e-16
    endloop
  endfacet
  facet normal 3.826834e-01 -9.238795e-01 5.657131e-17
    outer loop
      vertex -6.587500e+01 -3.484459e+00 2.000000e+00
      vertex -6.587500e+01 -3.484459e+00 8.256850e-16
      vertex -6.545293e+01 -3.309631e+00 2.000000e+00
    endloop
  endfacet
  facet normal 3.826834e-01 -9.238795e-01 5.657131e-17
    outer loop
      vertex -6.545293e+01 -3.309631e+00 2.000000e+00
      vertex -6.587500e+01 -3.484459e+00 8.256850e-16
      vertex -6.545293e+01 -3.309631e+00 8.149799e-16
    endloop
  endfacet
  facet normal 1.305262e-01 -9.914449e-01 6.070849e-17
    outer loop
      vertex -6.545293e+01 -3.309631e+00 2.000000e+00
      vertex -6.545293e+01 -3.309631e+00 8.149799e-16
      vertex -6.500000e+01 -3.250000e+00 2.000000e+00
    endloop
  endfacet
  facet normal 1.305262e-01 -9.914449e-01 6.070849e-17
    outer loop
      vertex -6.500000e+01 -3.250000e+00 2.000000e+00
      vertex -6.545293e+01 -3.309631e+00 8.149799e-16
      vertex -6.500000e+01 -3.250000e+00 8.113285e-16
    endloop
  endfacet
  facet normal -1.305262e-01 -9.914449e-01 6.070849e-17
    outer loop
      vertex -6.500000e+01 -3.250000e+00 2.000000e+00
      vertex -6.500000e+01 -3.250000e+00 8.113285e-16
      vertex -6.454707e+01 -3.309631e+00 2.000000e+00
    endloop
  endfacet
  facet normal -1.305262e-01 -9.914449e-01 6.070849e-17
    outer loop
      vertex -6.454707e+01 -3.309631e+00 2.000000e+00
      vertex -6.500000e+01 -3.250000e+00 8.113285e-16
      vertex -6.454707e+01 -3.309631e+00 8.149799e-16
    endloop
  endfacet
  facet normal -3.826834e-01 -9.238795e-01 5.657131e-17
    outer loop
      vertex -6.454707e+01 -3.309631e+00 2.000000e+00
      vertex -6.454707e+01 -3.309631e+00 8.149799e-16
      vertex -6.412500e+01 -3.484459e+00 2.000000e+00
    endloop
  endfacet
  facet normal -3.826834e-01 -9.238795e-01 5.657131e-17
    outer loop
      vertex -6.412500e+01 -3.484459e+00 2.000000e+00
      vertex -6.454707e+01 -3.309631e+00 8.149799e-16
      vertex -6.412500e+01 -3.484459e+00 8.256850e-16
    endloop
  endfacet
  facet normal -6.087614e-01 -7.933533e-01 4.857888e-17
    outer loop
      vertex -6.412500e+01 -3.484459e+00 2.000000e+00
      vertex -6.412500e+01 -3.484459e+00 8.256850e-16
      vertex -6.376256e+01 -3.762566e+00 2.000000e+00
    endloop
  endfacet
  facet normal -6.087614e-01 -7.933533e-01 4.857888e-17
    outer loop
      vertex -6.376256e+01 -3.762566e+00 2.000000e+00
      vertex -6.412500e+01 -3.484459e+00 8.256850e-16
      vertex -6.376256e+01 -3.762566e+00 8.427141e-16
    endloop
  endfacet
  facet normal -7.933533e-01 -6.087614e-01 3.727589e-17
    outer loop
      vertex -6.376256e+01 -3.762566e+00 2.000000e+00
      vertex -6.376256e+01 -3.762566e+00 8.427141e-16
      vertex -6.348446e+01 -4.125000e+00 2.000000e+00
    endloop
  endfacet
  facet normal -7.933533e-01 -6.087614e-01 3.727589e-17
    outer loop
      vertex -6.348446e+01 -4.125000e+00 2.000000e+00
      vertex -6.376256e+01 -3.762566e+00 8.427141e-16
      vertex -6.348446e+01 -4.125000e+00 8.649068e-16
    endloop
  endfacet
  facet normal -9.238795e-01 -3.826834e-01 2.343260e-17
    outer loop
      vertex -6.348446e+01 -4.125000e+00 2.000000e+00
      vertex -6.348446e+01 -4.125000e+00 8.649068e-16
      vertex -6.330963e+01 -4.547066e+00 2.000000e+00
    endloop
  endfacet
  facet normal -9.238795e-01 -3.826834e-01 2.343260e-17
    outer loop
      vertex -6.330963e+01 -4.547066e+00 2.000000e+00
      vertex -6.348446e+01 -4.125000e+00 8.649068e-16
      vertex -6.330963e+01 -4.547066e+00 8.907509e-16
    endloop
  endfacet
  facet normal -9.914449e-01 -1.305262e-01 7.992423e-18
    outer loop
      vertex -6.330963e+01 -4.547066e+00 2.000000e+00
      vertex -6.330963e+01 -4.547066e+00 8.907509e-16
      vertex -6.325000e+01 -5.000000e+00 2.000000e+00
    endloop
  endfacet
  facet normal -9.914449e-01 -1.305262e-01 7.992423e-18
    outer loop
      vertex -6.325000e+01 -5.000000e+00 2.000000e+00
      vertex -6.330963e+01 -4.547066e+00 8.907509e-16
      vertex -6.325000e+01 -5.000000e+00 9.184851e-16
    endloop
  endfacet
  facet normal -9.914449e-01 1.305262e-01 -7.992423e-18
    outer loop
      vertex -6.325000e+01 -5.000000e+00 2.000000e+00
      vertex -6.325000e+01 -5.000000e+00 9.184851e-16
      vertex -6.330963e+01 -5.452934e+00 2.000000e+00
    endloop
  endfacet
  facet normal -9.914449e-01 1.305262e-01 -7.992423e-18
    outer loop
      vertex -6.330963e+01 -5.452934e+00 2.000000e+00
      vertex -6.325000e+01 -5.000000e+00 9.184851e-16
      vertex -6.330963e+01 -5.452934e+00 9.462193e-16
    endloop
  endfacet
  facet normal -9.238795e-01 3.826834e-01 -2.343260e-17
    outer loop
      vertex -6.330963e+01 -5.452934e+00 2.000000e+00
      vertex -6.330963e+01 -5.452934e+00 9.462193e-16
      vertex -6.348446e+01 -5.875000e+00 2.000000e+00
    endloop
  endfacet
  facet normal -9.238795e-01 3.826834e-01 -2.343260e-17
    outer loop
      vertex -6.348446e+01 -5.875000e+00 2.000000e+00
      vertex -6.330963e+01 -5.452934e+00 9.462193e-16
      vertex -6.348446e+01 -5.875000e+00 9.720634e-16
    endloop
  endfacet
  facet normal -7.933533e-01 6.087614e-01 -3.727589e-17
    outer loop
      vertex -6.348446e+01 -5.875000e+00 2.000000e+00
      vertex -6.348446e+01 -5.875000e+00 9.720634e-16
      vertex -6.376256e+01 -6.237434e+00 2.000000e+00
    endloop
  endfacet
  facet normal -7.933533e-01 6.087614e-01 -3.727589e-17
    outer loop
      vertex -6.376256e+01 -6.237434e+00 2.000000e+00
      vertex -6.348446e+01 -5.875000e+00 9.720634e-16
      vertex -6.376256e+01 -6.237434e+00 9.942561e-16
    endloop
  endfacet
  facet normal -6.087614e-01 7.933533e-01 -4.857888e-17
    outer loop
      vertex -6.376256e+01 -6.237434e+00 2.000000e+00
      vertex -6.376256e+01 -6.237434e+00 9.942561e-16
      vertex -6.412500e+01 -6.515541e+00 2.000000e+00
    endloop
  endfacet
  facet normal -6.087614e-01 7.933533e-01 -4.857888e-17
    outer loop
      vertex -6.412500e+01 -6.515541e+00 2.000000e+00
      vertex -6.376256e+01 -6.237434e+00 9.942561e-16
      vertex -6.412500e+01 -6.515541e+00 1.011285e-15
    endloop
  endfacet
  facet normal -3.826834e-01 9.238795e-01 -5.657131e-17
    outer loop
      vertex -6.412500e+01 -6.515541e+00 2.000000e+00
      vertex -6.412500e+01 -6.515541e+00 1.011285e-15
      vertex -6.454707e+01 -6.690369e+00 2.000000e+00
    endloop
  endfacet
  facet normal -3.826834e-01 9.238795e-01 -5.657131e-17
    outer loop
      vertex -6.454707e+01 -6.690369e+00 2.000000e+00
      vertex -6.412500e+01 -6.515541e+00 1.011285e-15
      vertex -6.454707e+01 -6.690369e+00 1.021990e-15
    endloop
  endfacet
  facet normal -1.305262e-01 9.914449e-01 -6.070849e-17
    outer loop
      vertex -6.454707e+01 -6.690369e+00 2.000000e+00
      vertex -6.454707e+01 -6.690369e+00 1.021990e-15
      vertex -6.500000e+01 -6.750000e+00 2.000000e+00
    endloop
  endfacet
  facet normal -1.305262e-01 9.914449e-01 -6.070849e-17
    outer loop
      vertex -6.500000e+01 -6.750000e+00 2.000000e+00
      vertex -6.454707e+01 -6.690369e+00 1.021990e-15
      vertex -6.500000e+01 -6.750000e+00 1.025642e-15
    endloop
  endfacet
  facet normal 1.305262e-01 9.914449e-01 -6.070849e-17
    outer loop
      vertex -6.500000e+01 -6.750000e+00 2.000000e+00
      vertex -6.500000e+01 -6.750000e+00 1.025642e-15
      vertex -6.545293e+01 -6.690369e+00 2.000000e+00
    endloop
  endfacet
  facet normal 1.305262e-01 9.914449e-01 -6.070849e-17
    outer loop
      vertex -6.545293e+01 -6.690369e+00 2.000000e+00
      vertex -6.500000e+01 -6.750000e+00 1.025642e-15
      vertex -6.545293e+01 -6.690369e+00 1.021990e-15
    endloop
  endfacet
  facet normal 3.826834e-01 9.238795e-01 -5.657131e-17
    outer loop
      vertex -6.545293e+01 -6.690369e+00 2.000000e+00
      vertex -6.545293e+01 -6.690369e+00 1.021990e-15
      vertex -6.587500e+01 -6.515541e+00 2.000000e+00
    endloop
  endfacet
  facet normal 3.826834e-01 9.238795e-01 -5.657131e-17
    outer loop
      vertex -6.587500e+01 -6.515541e+00 2.000000e+00
      vertex -6.545293e+01 -6.690369e+00 1.021990e-15
      vertex -6.587500e+01 -6.515541e+00 1.011285e-15
    endloop
  endfacet
  facet normal 6.087614e-01 7.933533e-01 -4.857888e-17
    outer loop
      vertex -6.587500e+01 -6.515541e+00 2.000000e+00
      vertex -6.587500e+01 -6.515541e+00 1.011285e-15
      vertex -6.623744e+01 -6.237434e+00 2.000000e+00
    endloop
  endfacet
  facet normal 6.087614e-01 7.933533e-01 -4.857888e-17
    outer loop
      vertex -6.623744e+01 -6.237434e+00 2.000000e+00
      vertex -6.587500e+01 -6.515541e+00 1.011285e-15
      vertex -6.623744e+01 -6.237434e+00 9.942561e-16
    endloop
  endfacet
  facet normal 7.933533e-01 6.087614e-01 -3.727589e-17
    outer loop
      vertex -6.623744e+01 -6.237434e+00 2.000000e+00
      vertex -6.623744e+01 -6.237434e+00 9.942561e-16
      vertex -6.651554e+01 -5.875000e+00 2.000000e+00
    endloop
  endfacet
  facet normal 7.933533e-01 6.087614e-01 -3.727589e-17
    outer loop
      vertex -6.651554e+01 -5.875000e+00 2.000000e+00
      vertex -6.623744e+01 -6.237434e+00 9.942561e-16
      vertex -6.651554e+01 -5.875000e+00 9.720634e-16
    endloop
  endfacet
  facet normal 9.238795e-01 3.826834e-01 -2.343260e-17
    outer loop
      vertex -6.651554e+01 -5.875000e+00 2.000000e+00
      vertex -6.651554e+01 -5.875000e+00 9.720634e-16
      vertex -6.669037e+01 -5.452934e+00 2.000000e+00
    endloop
  endfacet
  facet normal 9.238795e-01 3.826834e-01 -2.343260e-17
    outer loop
      vertex -6.669037e+01 -5.452934e+00 2.000000e+00
      vertex -6.651554e+01 -5.875000e+00 9.720634e-16
      vertex -6.669037e+01 -5.452934e+00 9.462193e-16
    endloop
  endfacet
  facet normal 0.000000e+00 1.000000e+00 -6.123234e-17
    outer loop
      vertex 6.816873e+01 -6.771202e+00 1.026940e-15
      vertex -5.333127e+01 -6.771202e+00 1.026940e-15
      vertex 6.816873e+01 -6.771202e+00 2.000000e+00
    endloop
  endfacet
  facet normal 0.000000e+00 1.000000e+00 -6.123234e-17
    outer loop
      vertex 6.816873e+01 -6.771202e+00 2.000000e+00
      vertex -5.333127e+01 -6.771202e+00 1.026940e-15
      vertex -5.333127e+01 -6.771202e+00 2.000000e+00
    endloop
  endfacet
  facet normal -1.305262e-01 -9.914449e-01 6.070849e-17
    outer loop
      vertex 6.816873e+01 -3.271202e+00 2.000000e+00
      vertex 6.816873e+01 -3.271202e+00 8.126268e-16
      vertex 6.862167e+01 -3.330833e+00 2.000000e+00
    endloop
  endfacet
  facet normal -1.305262e-01 -9.914449e-01 6.070849e-17
    outer loop
      vertex 6.862167e+01 -3.330833e+00 2.000000e+00
      vertex 6.816873e+01 -3.271202e+00 8.126268e-16
      vertex 6.862167e+01 -3.330833e+00 8.162781e-16
    endloop
  endfacet
  facet normal -3.826834e-01 -9.238795e-01 5.657131e-17
    outer loop
      vertex 6.862167e+01 -3.330833e+00 2.000000e+00
      vertex 6.862167e+01 -3.330833e+00 8.162781e-16
      vertex 6.904373e+01 -3.505661e+00 2.000000e+00
    endloop
  endfacet
  facet normal -3.826834e-01 -9.238795e-01 5.657131e-17
    outer loop
      vertex 6.904373e+01 -3.505661e+00 2.000000e+00
      vertex 6.862167e+01 -3.330833e+00 8.162781e-16
      vertex 6.904373e+01 -3.505661e+00 8.269832e-16
    endloop
  endfacet
  facet normal -6.087614e-01 -7.933533e-01 4.857888e-17
    outer loop
      vertex 6.904373e+01 -3.505661e+00 2.000000e+00
      vertex 6.904373e+01 -3.505661e+00 8.269832e-16
      vertex 6.940617e+01 -3.783768e+00 2.000000e+00
    endloop
  endfacet
  facet normal -6.087614e-01 -7.933533e-01 4.857888e-17
    outer loop
      vertex 6.940617e+01 -3.783768e+00 2.000000e+00
      vertex 6.904373e+01 -3.505661e+00 8.269832e-16
      vertex 6.940617e+01 -3.783768e+00 8.440123e-16
    endloop
  endfacet
  facet normal -7.933533e-01 -6.087614e-01 3.727589e-17
    outer loop
      vertex 6.940617e+01 -3.783768e+00 2.000000e+00
      vertex 6.940617e+01 -3.783768e+00 8.440123e-16
      vertex 6.968428e+01 -4.146202e+00 2.000000e+00
    endloop
  endfacet
  facet normal -7.933533e-01 -6.087614e-01 3.727589e-17
    outer loop
      vertex 6.968428e+01 -4.146202e+00 2.000000e+00
      vertex 6.940617e+01 -3.783768e+00 8.440123e-16
      vertex 6.968428e+01 -4.146202e+00 8.662051e-16
    endloop
  endfacet
  facet normal -9.238795e-01 -3.826834e-01 2.343260e-17
    outer loop
      vertex 6.968428e+01 -4.146202e+00 2.000000e+00
      vertex 6.968428e+01 -4.146202e+00 8.662051e-16
      vertex 6.985910e+01 -4.568268e+00 2.000000e+00
    endloop
  endfacet
  facet normal -9.238795e-01 -3.826834e-01 2.343260e-17
    outer loop
      vertex 6.985910e+01 -4.568268e+00 2.000000e+00
      vertex 6.968428e+01 -4.146202e+00 8.662051e-16
      vertex 6.985910e+01 -4.568268e+00 8.920491e-16
    endloop
  endfacet
  facet normal -9.914449e-01 -1.305262e-01 7.992423e-18
    outer loop
      vertex 6.985910e+01 -4.568268e+00 2.000000e+00
      vertex 6.985910e+01 -4.568268e+00 8.920491e-16
      vertex 6.991873e+01 -5.021202e+00 2.000000e+00
    endloop
  endfacet
  facet normal -9.914449e-01 -1.305262e-01 7.992423e-18
    outer loop
      vertex 6.991873e+01 -5.021202e+00 2.000000e+00
      vertex 6.985910e+01 -4.568268e+00 8.920491e-16
      vertex 6.991873e+01 -5.021202e+00 9.197834e-16
    endloop
  endfacet
  facet normal -9.914449e-01 1.305262e-01 -7.992423e-18
    outer loop
      vertex 6.991873e+01 -5.021202e+00 2.000000e+00
      vertex 6.991873e+01 -5.021202e+00 9.197834e-16
      vertex 6.985910e+01 -5.474136e+00 2.000000e+00
    endloop
  endfacet
  facet normal -9.914449e-01 1.305262e-01 -7.992423e-18
    outer loop
      vertex 6.985910e+01 -5.474136e+00 2.000000e+00
      vertex 6.991873e+01 -5.021202e+00 9.197834e-16
      vertex 6.985910e+01 -5.474136e+00 9.475176e-16
    endloop
  endfacet
  facet normal -9.238795e-01 3.826834e-01 -2.343260e-17
    outer loop
      vertex 6.985910e+01 -5.474136e+00 2.000000e+00
      vertex 6.985910e+01 -5.474136e+00 9.475176e-16
      vertex 6.968428e+01 -5.896202e+00 2.000000e+00
    endloop
  endfacet
  facet normal -9.238795e-01 3.826834e-01 -2.343260e-17
    outer loop
      vertex 6.968428e+01 -5.896202e+00 2.000000e+00
      vertex 6.985910e+01 -5.474136e+00 9.475176e-16
      vertex 6.968428e+01 -5.896202e+00 9.733617e-16
    endloop
  endfacet
  facet normal -7.933533e-01 6.087614e-01 -3.727589e-17
    outer loop
      vertex 6.968428e+01 -5.896202e+00 2.000000e+00
      vertex 6.968428e+01 -5.896202e+00 9.733617e-16
      vertex 6.940617e+01 -6.258636e+00 2.000000e+00
    endloop
  endfacet
  facet normal -7.933533e-01 6.087614e-01 -3.727589e-17
    outer loop
      vertex 6.940617e+01 -6.258636e+00 2.000000e+00
      vertex 6.968428e+01 -5.896202e+00 9.733617e-16
      vertex 6.940617e+01 -6.258636e+00 9.955544e-16
    endloop
  endfacet
  facet normal -6.087614e-01 7.933533e-01 -4.857888e-17
    outer loop
      vertex 6.940617e+01 -6.258636e+00 2.000000e+00
      vertex 6.940617e+01 -6.258636e+00 9.955544e-16
      vertex 6.904373e+01 -6.536751e+00 2.000000e+00
    endloop
  endfacet
  facet normal -6.087614e-01 7.933533e-01 -4.857888e-17
    outer loop
      vertex 6.904373e+01 -6.536751e+00 2.000000e+00
      vertex 6.940617e+01 -6.258636e+00 9.955544e-16
      vertex 6.904373e+01 -6.536751e+00 1.012584e-15
    endloop
  endfacet
  facet normal -3.826834e-01 9.238795e-01 -5.657131e-17
    outer loop
      vertex 6.904373e+01 -6.536751e+00 2.000000e+00
      vertex 6.904373e+01 -6.536751e+00 1.012584e-15
      vertex 6.862167e+01 -6.711571e+00 2.000000e+00
    endloop
  endfacet
  facet normal -3.826834e-01 9.238795e-01 -5.657131e-17
    outer loop
      vertex 6.862167e+01 -6.711571e+00 2.000000e+00
      vertex 6.904373e+01 -6.536751e+00 1.012584e-15
      vertex 6.862167e+01 -6.711571e+00 1.023289e-15
    endloop
  endfacet
  facet normal -1.305262e-01 9.914449e-01 -6.070849e-17
    outer loop
      vertex 6.862167e+01 -6.711571e+00 2.000000e+00
      vertex 6.862167e+01 -6.711571e+00 1.023289e-15
      vertex 6.816873e+01 -6.771202e+00 2.000000e+00
    endloop
  endfacet
  facet normal -1.305262e-01 9.914449e-01 -6.070849e-17
    outer loop
      vertex 6.816873e+01 -6.771202e+00 2.000000e+00
      vertex 6.862167e+01 -6.711571e+00 1.023289e-15
      vertex 6.816873e+01 -6.771202e+00 1.026940e-15
    endloop
  endfacet
  facet normal 0.000000e+00 -1.000000e+00 6.123234e-17
    outer loop
      vertex -5.333127e+01 -3.271202e+00 8.126268e-16
      vertex 6.816873e+01 -3.271202e+00 8.126268e-16
      vertex -5.333127e+01 -3.271202e+00 2.000000e+00
    endloop
  endfacet
  facet normal 0.000000e+00 -1.000000e+00 6.123234e-17
    outer loop
      vertex -5.333127e+01 -3.271202e+00 2.000000e+00
      vertex 6.816873e+01 -3.271202e+00 8.126268e-16
      vertex 6.816873e+01 -3.271202e+00 2.000000e+00
    endloop
  endfacet
  facet normal 1.305262e-01 9.914449e-01 -6.070849e-17
    outer loop
      vertex -5.333127e+01 -6.771202e+00 2.000000e+00
      vertex -5.333127e+01 -6.771202e+00 1.026940e-15
      vertex -5.378420e+01 -6.711571e+00 2.000000e+00
    endloop
  endfacet
  facet normal 1.305262e-01 9.914449e-01 -6.070849e-17
    outer loop
      vertex -5.378420e+01 -6.711571e+00 2.000000e+00
      vertex -5.333127e+01 -6.771202e+00 1.026940e-15
      vertex -5.378420e+01 -6.711571e+00 1.023289e-15
    endloop
  endfacet
  facet normal 3.826834e-01 9.238795e-01 -5.657131e-17
    outer loop
      vertex -5.378420e+01 -6.711571e+00 2.000000e+00
      vertex -5.378420e+01 -6.711571e+00 1.023289e-15
      vertex -5.420627e+01 -6.536751e+00 2.000000e+00
    endloop
  endfacet
  facet normal 3.826834e-01 9.238795e-01 -5.657131e-17
    outer loop
      vertex -5.420627e+01 -6.536751e+00 2.000000e+00
      vertex -5.378420e+01 -6.711571e+00 1.023289e-15
      vertex -5.420627e+01 -6.536751e+00 1.012584e-15
    endloop
  endfacet
  facet normal 6.087614e-01 7.933533e-01 -4.857888e-17
    outer loop
      vertex -5.420627e+01 -6.536751e+00 2.000000e+00
      vertex -5.420627e+01 -6.536751e+00 1.012584e-15
      vertex -5.456870e+01 -6.258636e+00 2.000000e+00
    endloop
  endfacet
  facet normal 6.087614e-01 7.933533e-01 -4.857888e-17
    outer loop
      vertex -5.456870e+01 -6.258636e+00 2.000000e+00
      vertex -5.420627e+01 -6.536751e+00 1.012584e-15
      vertex -5.456870e+01 -6.258636e+00 9.955544e-16
    endloop
  endfacet
  facet normal 7.933533e-01 6.087614e-01 -3.727589e-17
    outer loop
      vertex -5.456870e+01 -6.258636e+00 2.000000e+00
      vertex -5.456870e+01 -6.258636e+00 9.955544e-16
      vertex -5.484681e+01 -5.896202e+00 2.000000e+00
    endloop
  endfacet
  facet normal 7.933533e-01 6.087614e-01 -3.727589e-17
    outer loop
      vertex -5.484681e+01 -5.896202e+00 2.000000e+00
      vertex -5.456870e+01 -6.258636e+00 9.955544e-16
      vertex -5.484681e+01 -5.896202e+00 9.733617e-16
    endloop
  endfacet
  facet normal 9.238795e-01 3.826834e-01 -2.343260e-17
    outer loop
      vertex -5.484681e+01 -5.896202e+00 2.000000e+00
      vertex -5.484681e+01 -5.896202e+00 9.733617e-16
      vertex -5.502164e+01 -5.474136e+00 2.000000e+00
    endloop
  endfacet
  facet normal 9.238795e-01 3.826834e-01 -2.343260e-17
    outer loop
      vertex -5.502164e+01 -5.474136e+00 2.000000e+00
      vertex -5.484681e+01 -5.896202e+00 9.733617e-16
      vertex -5.502164e+01 -5.474136e+00 9.475176e-16
    endloop
  endfacet
  facet normal 9.914449e-01 1.305262e-01 -7.992423e-18
    outer loop
      vertex -5.502164e+01 -5.474136e+00 2.000000e+00
      vertex -5.502164e+01 -5.474136e+00 9.475176e-16
      vertex -5.508127e+01 -5.021202e+00 2.000000e+00
    endloop
  endfacet
  facet normal 9.914449e-01 1.305262e-01 -7.992423e-18
    outer loop
      vertex -5.508127e+01 -5.021202e+00 2.000000e+00
      vertex -5.502164e+01 -5.474136e+00 9.475176e-16
      vertex -5.508127e+01 -5.021202e+00 9.197834e-16
    endloop
  endfacet
  facet normal 9.914449e-01 -1.305262e-01 7.992423e-18
    outer loop
      vertex -5.508127e+01 -5.021202e+00 2.000000e+00
      vertex -5.508127e+01 -5.021202e+00 9.197834e-16
      vertex -5.502164e+01 -4.568268e+00 2.000000e+00
    endloop
  endfacet
  facet normal 9.914449e-01 -1.305262e-01 7.992423e-18
    outer loop
      vertex -5.502164e+01 -4.568268e+00 2.000000e+00
      vertex -5.508127e+01 -5.021202e+00 9.197834e-16
      vertex -5.502164e+01 -4.568268e+00 8.920491e-16
    endloop
  endfacet
  facet normal 9.238795e-01 -3.826834e-01 2.343260e-17
    outer loop
      vertex -5.502164e+01 -4.568268e+00 2.000000e+00
      vertex -5.502164e+01 -4.568268e+00 8.920491e-16
      vertex -5.484681e+01 -4.146202e+00 2.000000e+00
    endloop
  endfacet
  facet normal 9.238795e-01 -3.826834e-01 2.343260e-17
    outer loop
      vertex -5.484681e+01 -4.146202e+00 2.000000e+00
      vertex -5.502164e+01 -4.568268e+00 8.920491e-16
      vertex -5.484681e+01 -4.146202e+00 8.662051e-16
    endloop
  endfacet
  facet normal 7.933533e-01 -6.087614e-01 3.727589e-17
    outer loop
      vertex -5.484681e+01 -4.146202e+00 2.000000e+00
      vertex -5.484681e+01 -4.146202e+00 8.662051e-16
      vertex -5.456870e+01 -3.783768e+00 2.000000e+00
    endloop
  endfacet
  facet normal 7.933533e-01 -6.087614e-01 3.727589e-17
    outer loop
      vertex -5.456870e+01 -3.783768e+00 2.000000e+00
      vertex -5.484681e+01 -4.146202e+00 8.662051e-16
      vertex -5.456870e+01 -3.783768e+00 8.440123e-16
    endloop
  endfacet
  facet normal 6.087614e-01 -7.933533e-01 4.857888e-17
    outer loop
      vertex -5.456870e+01 -3.783768e+00 2.000000e+00
      vertex -5.456870e+01 -3.783768e+00 8.440123e-16
      vertex -5.420627e+01 -3.505661e+00 2.000000e+00
    endloop
  endfacet
  facet normal 6.087614e-01 -7.933533e-01 4.857888e-17
    outer loop
      vertex -5.420627e+01 -3.505661e+00 2.000000e+00
      vertex -5.456870e+01 -3.783768e+00 8.440123e-16
      vertex -5.420627e+01 -3.505661e+00 8.269832e-16
    endloop
  endfacet
  facet normal 3.826834e-01 -9.238795e-01 5.657131e-17
    outer loop
      vertex -5.420627e+01 -3.505661e+00 2.000000e+00
      vertex -5.420627e+01 -3.505661e+00 8.269832e-16
      vertex -5.378420e+01 -3.330833e+00 2.000000e+00
    endloop
  endfacet
  facet normal 3.826834e-01 -9.238795e-01 5.657131e-17
    outer loop
      vertex -5.378420e+01 -3.330833e+00 2.000000e+00
      vertex -5.420627e+01 -3.505661e+00 8.269832e-16
      vertex -5.378420e+01 -3.330833e+00 8.162781e-16
    endloop
  endfacet
  facet normal 1.305262e-01 -9.914449e-01 6.070849e-17
    outer loop
      vertex -5.378420e+01 -3.330833e+00 2.000000e+00
      vertex -5.378420e+01 -3.330833e+00 8.162781e-16
      vertex -5.333127e+01 -3.271202e+00 2.000000e+00
    endloop
  endfacet
  facet normal 1.305262e-01 -9.914449e-01 6.070849e-17
    outer loop
      vertex -5.333127e+01 -3.271202e+00 2.000000e+00
      vertex -5.378420e+01 -3.330833e+00 8.162781e-16
      vertex -5.333127e+01 -3.271202e+00 8.126268e-16
    endloop
  endfacet
  facet normal 0.000000e+00 -1.000000e+00 6.123234e-17
    outer loop
      vertex -7.500000e+01 -1.000000e+01 1.224647e-15
      vertex 7.500000e+01 -1.000000e+01 1.224647e-15
      vertex -7.500000e+01 -1.000000e+01 2.000000e+00
    endloop
  endfacet
  facet normal 0.000000e+00 -1.000000e+00 6.123234e-17
    outer loop
      vertex -7.500000e+01 -1.000000e+01 2.000000e+00
      vertex 7.500000e+01 -1.000000e+01 1.224647e-15
      vertex 7.500000e+01 -1.000000e+01 2.000000e+00
    endloop
  endfacet
  facet normal -1.000000e+00 0.000000e+00 0.000000e+00
    outer loop
      vertex -7.500000e+01 1.000000e+01 0.000000e+00
      vertex -7.500000e+01 -1.000000e+01 1.224647e-15
      vertex -7.500000e+01 1.000000e+01 2.000000e+00
    endloop
  endfacet
  facet normal -1.000000e+00 0.000000e+00 0.000000e+00
    outer loop
      vertex -7.500000e+01 1.000000e+01 2.000000e+00
      vertex -7.500000e+01 -1.000000e+01 1.224647e-15
      vertex -7.500000e+01 -1.000000e+01 2.000000e+00
    endloop
  endfacet
  facet normal 0.000000e+00 1.000000e+00 -6.123234e-17
    outer loop
      vertex 7.500000e+01 1.000000e+01 0.000000e+00
      vertex -7.500000e+01 1.000000e+01 0.000000e+00
      vertex 7.500000e+01 1.000000e+01 2.000000e+00
    endloop
  endfacet
  facet normal 0.000000e+00 1.000000e+00 -6.123234e-17
    outer loop
      vertex 7.500000e+01 1.000000e+01 2.000000e+00
      vertex -7.500000e+01 1.000000e+01 0.000000e+00
      vertex -7.500000e+01 1.000000e+01 2.000000e+00
    endloop
  endfacet
  facet normal 1.000000e+00 0.000000e+00 0.000000e+00
    outer loop
      vertex 7.500000e+01 -1.000000e+01 1.224647e-15
      vertex 7.500000e+01 1.000000e+01 0.000000e+00
      vertex 7.500000e+01 -1.000000e+01 2.000000e+00
    endloop
  endfacet
  facet normal 1.000000e+00 0.000000e+00 0.000000e+00
    outer loop
      vertex 7.500000e+01 -1.000000e+01 2.000000e+00
      vertex 7.500000e+01 1.000000e+01 0.000000e+00
      vertex 7.500000e+01 1.000000e+01 2.000000e+00
    endloop
  endfacet
  facet normal 0.000000e+00 6.123234e-17 1.000000e+00
    outer loop
      vertex 5.300000e+01 6.000000e+00 2.000000e+00
      vertex 6.816873e+01 -3.271202e+00 2.000000e+00
      vertex 6.000000e+01 6.000000e+00 2.000000e+00
    endloop
  endfacet
  facet normal 0.000000e+00 6.123234e-17 1.000000e+00
    outer loop
      vertex 6.000000e+01 6.000000e+00 2.000000e+00
      vertex 6.816873e+01 -3.271202e+00 2.000000e+00
      vertex 6.862167e+01 -3.330833e+00 2.000000e+00
    endloop
  endfacet
  facet normal 0.000000e+00 6.123234e-17 1.000000e+00
    outer loop
      vertex 6.000000e+01 6.000000e+00 2.000000e+00
      vertex 6.862167e+01 -3.330833e+00 2.000000e+00
      vertex 7.500000e+01 1.000000e+01 2.000000e+00
    endloop
  endfacet
  facet normal 0.000000e+00 6.123234e-17 1.000000e+00
    outer loop
      vertex 7.500000e+01 1.000000e+01 2.000000e+00
      vertex 6.862167e+01 -3.330833e+00 2.000000e+00
      vertex 6.904373e+01 -3.505661e+00 2.000000e+00
    endloop
  endfacet
  facet normal 0.000000e+00 6.123234e-17 1.000000e+00
    outer loop
      vertex 7.500000e+01 1.000000e+01 2.000000e+00
      vertex 6.904373e+01 -3.505661e+00 2.000000e+00
      vertex 6.940617e+01 -3.783768e+00 2.000000e+00
    endloop
  endfacet
  facet normal 0.000000e+00 6.123234e-17 1.000000e+00
    outer loop
      vertex 5.300000e+01 8.000000e+00 2.000000e+00
      vertex -5.300000e+01 8.000000e+00 2.000000e+00
      vertex 5.300000e+01 6.000000e+00 2.000000e+00
    endloop
  endfacet
  facet normal 0.000000e+00 6.123234e-17 1.000000e+00
    outer loop
      vertex 5.300000e+01 6.000000e+00 2.000000e+00
      vertex -5.300000e+01 8.000000e+00 2.000000e+00
      vertex -5.300000e+01 6.000000e+00 2.000000e+00
    endloop
  endfacet
  facet normal 0.000000e+00 6.123234e-17 1.000000e+00
    outer loop
      vertex 5.300000e+01 6.000000e+00 2.000000e+00
      vertex -5.300000e+01 6.000000e+00 2.000000e+00
      vertex -5.333127e+01 -3.271202e+00 2.000000e+00
    endloop
  endfacet
  facet normal 0.000000e+00 6.123234e-17 1.000000e+00
    outer loop
      vertex -5.333127e+01 -3.271202e+00 2.000000e+00
      vertex -5.300000e+01 6.000000e+00 2.000000e+00
      vertex -6.000000e+01 6.000000e+00 2.000000e+00
    endloop
  endfacet
  facet normal 0.000000e+00 6.123234e-17 1.000000e+00
    outer loop
      vertex -5.333127e+01 -3.271202e+00 2.000000e+00
      vertex -6.000000e+01 6.000000e+00 2.000000e+00
      vertex -6.500000e+01 -3.250000e+00 2.000000e+00
    endloop
  endfacet
  facet normal 0.000000e+00 6.123234e-17 1.000000e+00
    outer loop
      vertex -6.500000e+01 -3.250000e+00 2.000000e+00
      vertex -6.000000e+01 6.000000e+00 2.000000e+00
      vertex -6.545293e+01 -3.309631e+00 2.000000e+00
    endloop
  endfacet
  facet normal 0.000000e+00 6.123234e-17 1.000000e+00
    outer loop
      vertex -6.545293e+01 -3.309631e+00 2.000000e+00
      vertex -6.000000e+01 6.000000e+00 2.000000e+00
      vertex -7.500000e+01 1.000000e+01 2.000000e+00
    endloop
  endfacet
  facet normal 0.000000e+00 6.123234e-17 1.000000e+00
    outer loop
      vertex -6.545293e+01 -3.309631e+00 2.000000e+00
      vertex -7.500000e+01 1.000000e+01 2.000000e+00
      vertex -6.587500e+01 -3.484459e+00 2.000000e+00
    endloop
  endfacet
  facet normal 0.000000e+00 6.123234e-17 1.000000e+00
    outer loop
      vertex -6.587500e+01 -3.484459e+00 2.000000e+00
      vertex -7.500000e+01 1.000000e+01 2.000000e+00
      vertex -6.623744e+01 -3.762566e+00 2.000000e+00
    endloop
  endfacet
  facet normal 0.000000e+00 6.123234e-17 1.000000e+00
    outer loop
      vertex -6.623744e+01 -3.762566e+00 2.000000e+00
      vertex -7.500000e+01 1.000000e+01 2.000000e+00
      vertex -7.500000e+01 -1.000000e+01 2.000000e+00
    endloop
  endfacet
  facet normal 0.000000e+00 6.123234e-17 1.000000e+00
    outer loop
      vertex -6.623744e+01 -3.762566e+00 2.000000e+00
      vertex -7.500000e+01 -1.000000e+01 2.000000e+00
      vertex -6.651554e+01 -4.125000e+00 2.000000e+00
    endloop
  endfacet
  facet normal 0.000000e+00 6.123234e-17 1.000000e+00
    outer loop
      vertex -6.651554e+01 -4.125000e+00 2.000000e+00
      vertex -7.500000e+01 -1.000000e+01 2.000000e+00
      vertex -6.669037e+01 -4.547066e+00 2.000000e+00
    endloop
  endfacet
  facet normal 0.000000e+00 6.123234e-17 1.000000e+00
    outer loop
      vertex -6.669037e+01 -4.547066e+00 2.000000e+00
      vertex -7.500000e+01 -1.000000e+01 2.000000e+00
      vertex -6.675000e+01 -5.000000e+00 2.000000e+00
    endloop
  endfacet
  facet normal 0.000000e+00 6.123234e-17 1.000000e+00
    outer loop
      vertex -6.675000e+01 -5.000000e+00 2.000000e+00
      vertex -7.500000e+01 -1.000000e+01 2.000000e+00
      vertex -6.669037e+01 -5.452934e+00 2.000000e+00
    endloop
  endfacet
  facet normal 0.000000e+00 6.123234e-17 1.000000e+00
    outer loop
      vertex -6.669037e+01 -5.452934e+00 2.000000e+00
      vertex -7.500000e+01 -1.000000e+01 2.000000e+00
      vertex -6.651554e+01 -5.875000e+00 2.000000e+00
    endloop
  endfacet
  facet normal 0.000000e+00 6.123234e-17 1.000000e+00
    outer loop
      vertex -6.651554e+01 -5.875000e+00 2.000000e+00
      vertex -7.500000e+01 -1.000000e+01 2.000000e+00
      vertex -6.623744e+01 -6.237434e+00 2.000000e+00
    endloop
  endfacet
  facet normal 0.000000e+00 6.123234e-17 1.000000e+00
    outer loop
      vertex -6.623744e+01 -6.237434e+00 2.000000e+00
      vertex -7.500000e+01 -1.000000e+01 2.000000e+00
      vertex -6.587500e+01 -6.515541e+00 2.000000e+00
    endloop
  endfacet
  facet normal 0.000000e+00 6.123234e-17 1.000000e+00
    outer loop
      vertex -6.587500e+01 -6.515541e+00 2.000000e+00
      vertex -7.500000e+01 -1.000000e+01 2.000000e+00
      vertex -6.545293e+01 -6.690369e+00 2.000000e+00
    endloop
  endfacet
  facet normal 0.000000e+00 6.123234e-17 1.000000e+00
    outer loop
      vertex -6.545293e+01 -6.690369e+00 2.000000e+00
      vertex -7.500000e+01 -1.000000e+01 2.000000e+00
      vertex -6.500000e+01 -6.750000e+00 2.000000e+00
    endloop
  endfacet
  facet normal 0.000000e+00 6.123234e-17 1.000000e+00
    outer loop
      vertex -6.500000e+01 -6.750000e+00 2.000000e+00
      vertex -7.500000e+01 -1.000000e+01 2.000000e+00
      vertex -5.333127e+01 -6.771202e+00 2.000000e+00
    endloop
  endfacet
  facet normal 0.000000e+00 6.123234e-17 1.000000e+00
    outer loop
      vertex -6.500000e+01 -6.750000e+00 2.000000e+00
      vertex -5.333127e+01 -6.771202e+00 2.000000e+00
      vertex -5.378420e+01 -6.711571e+00 2.000000e+00
    endloop
  endfacet
  facet normal 0.000000e+00 6.123234e-17 1.000000e+00
    outer loop
      vertex 6.000000e+01 8.000000e+00 2.000000e+00
      vertex 7.500000e+01 1.000000e+01 2.000000e+00
      vertex 5.300000e+01 8.000000e+00 2.000000e+00
    endloop
  endfacet
  facet normal 0.000000e+00 6.123234e-17 1.000000e+00
    outer loop
      vertex 5.300000e+01 8.000000e+00 2.000000e+00
      vertex 7.500000e+01 1.000000e+01 2.000000e+00
      vertex -7.500000e+01 1.000000e+01 2.000000e+00
    endloop
  endfacet
  facet normal 0.000000e+00 6.123234e-17 1.000000e+00
    outer loop
      vertex 5.300000e+01 8.000000e+00 2.000000e+00
      vertex -7.500000e+01 1.000000e+01 2.000000e+00
      vertex -5.300000e+01 8.000000e+00 2.000000e+00
    endloop
  endfacet
  facet normal 0.000000e+00 6.123234e-17 1.000000e+00
    outer loop
      vertex -5.300000e+01 8.000000e+00 2.000000e+00
      vertex -7.500000e+01 1.000000e+01 2.000000e+00
      vertex -6.000000e+01 8.000000e+00 2.000000e+00
    endloop
  endfacet
  facet normal 0.000000e+00 6.123234e-17 1.000000e+00
    outer loop
      vertex -6.000000e+01 8.000000e+00 2.000000e+00
      vertex -7.500000e+01 1.000000e+01 2.000000e+00
      vertex -6.000000e+01 6.000000e+00 2.000000e+00
    endloop
  endfacet
  facet normal 0.000000e+00 6.123234e-17 1.000000e+00
    outer loop
      vertex 6.000000e+01 8.000000e+00 2.000000e+00
      vertex 6.000000e+01 6.000000e+00 2.000000e+00
      vertex 7.500000e+01 1.000000e+01 2.000000e+00
    endloop
  endfacet
  facet normal 0.000000e+00 6.123234e-17 1.000000e+00
    outer loop
      vertex -6.500000e+01 -6.750000e+00 2.000000e+00
      vertex -5.378420e+01 -6.711571e+00 2.000000e+00
      vertex -6.454707e+01 -6.690369e+00 2.000000e+00
    endloop
  endfacet
  facet normal 0.000000e+00 6.123234e-17 1.000000e+00
    outer loop
      vertex -6.454707e+01 -6.690369e+00 2.000000e+00
      vertex -5.378420e+01 -6.711571e+00 2.000000e+00
      vertex -5.420627e+01 -6.536751e+00 2.000000e+00
    endloop
  endfacet
  facet normal 0.000000e+00 6.123234e-17 1.000000e+00
    outer loop
      vertex -6.454707e+01 -6.690369e+00 2.000000e+00
      vertex -5.420627e+01 -6.536751e+00 2.000000e+00
      vertex -6.412500e+01 -6.515541e+00 2.000000e+00
    endloop
  endfacet
  facet normal 0.000000e+00 6.123234e-17 1.000000e+00
    outer loop
      vertex -6.412500e+01 -6.515541e+00 2.000000e+00
      vertex -5.420627e+01 -6.536751e+00 2.000000e+00
      vertex -5.456870e+01 -6.258636e+00 2.000000e+00
    endloop
  endfacet
  facet normal 0.000000e+00 6.123234e-17 1.000000e+00
    outer loop
      vertex -6.412500e+01 -6.515541e+00 2.000000e+00
      vertex -5.456870e+01 -6.258636e+00 2.000000e+00
      vertex -6.376256e+01 -6.237434e+00 2.000000e+00
    endloop
  endfacet
  facet normal 0.000000e+00 6.123234e-17 1.000000e+00
    outer loop
      vertex -6.376256e+01 -6.237434e+00 2.000000e+00
      vertex -5.456870e+01 -6.258636e+00 2.000000e+00
      vertex -5.484681e+01 -5.896202e+00 2.000000e+00
    endloop
  endfacet
  facet normal 0.000000e+00 6.123234e-17 1.000000e+00
    outer loop
      vertex -6.376256e+01 -6.237434e+00 2.000000e+00
      vertex -5.484681e+01 -5.896202e+00 2.000000e+00
      vertex -6.348446e+01 -5.875000e+00 2.000000e+00
    endloop
  endfacet
  facet normal 0.000000e+00 6.123234e-17 1.000000e+00
    outer loop
      vertex -6.348446e+01 -5.875000e+00 2.000000e+00
      vertex -5.484681e+01 -5.896202e+00 2.000000e+00
      vertex -5.502164e+01 -5.474136e+00 2.000000e+00
    endloop
  endfacet
  facet normal 0.000000e+00 6.123234e-17 1.000000e+00
    outer loop
      vertex -6.348446e+01 -5.875000e+00 2.000000e+00
      vertex -5.502164e+01 -5.474136e+00 2.000000e+00
      vertex -6.330963e+01 -5.452934e+00 2.000000e+00
    endloop
  endfacet
  facet normal 0.000000e+00 6.123234e-17 1.000000e+00
    outer loop
      vertex -6.330963e+01 -5.452934e+00 2.000000e+00
      vertex -5.502164e+01 -5.474136e+00 2.000000e+00
      vertex -5.508127e+01 -5.021202e+00 2.000000e+00
    endloop
  endfacet
  facet normal 0.000000e+00 6.123234e-17 1.000000e+00
    outer loop
      vertex -6.330963e+01 -5.452934e+00 2.000000e+00
      vertex -5.508127e+01 -5.021202e+00 2.000000e+00
      vertex -6.325000e+01 -5.000000e+00 2.000000e+00
    endloop
  endfacet
  facet normal 0.000000e+00 6.123234e-17 1.000000e+00
    outer loop
      vertex -6.325000e+01 -5.000000e+00 2.000000e+00
      vertex -5.508127e+01 -5.021202e+00 2.000000e+00
      vertex -5.502164e+01 -4.568268e+00 2.000000e+00
    endloop
  endfacet
  facet normal 0.000000e+00 6.123234e-17 1.000000e+00
    outer loop
      vertex -6.325000e+01 -5.000000e+00 2.000000e+00
      vertex -5.502164e+01 -4.568268e+00 2.000000e+00
      vertex -6.330963e+01 -4.547066e+00 2.000000e+00
    endloop
  endfacet
  facet normal 0.000000e+00 6.123234e-17 1.000000e+00
    outer loop
      vertex -6.330963e+01 -4.547066e+00 2.000000e+00
      vertex -5.502164e+01 -4.568268e+00 2.000000e+00
      vertex -5.484681e+01 -4.146202e+00 2.000000e+00
    endloop
  endfacet
  facet normal 0.000000e+00 6.123234e-17 1.000000e+00
    outer loop
      vertex -6.330963e+01 -4.547066e+00 2.000000e+00
      vertex -5.484681e+01 -4.146202e+00 2.000000e+00
      vertex -6.348446e+01 -4.125000e+00 2.000000e+00
    endloop
  endfacet
  facet normal 0.000000e+00 6.123234e-17 1.000000e+00
    outer loop
      vertex -6.348446e+01 -4.125000e+00 2.000000e+00
      vertex -5.484681e+01 -4.146202e+00 2.000000e+00
      vertex -5.456870e+01 -3.783768e+00 2.000000e+00
    endloop
  endfacet
  facet normal 0.000000e+00 6.123234e-17 1.000000e+00
    outer loop
      vertex -6.348446e+01 -4.125000e+00 2.000000e+00
      vertex -5.456870e+01 -3.783768e+00 2.000000e+00
      vertex -6.376256e+01 -3.762566e+00 2.000000e+00
    endloop
  endfacet
  facet normal 0.000000e+00 6.123234e-17 1.000000e+00
    outer loop
      vertex -6.376256e+01 -3.762566e+00 2.000000e+00
      vertex -5.456870e+01 -3.783768e+00 2.000000e+00
      vertex -5.420627e+01 -3.505661e+00 2.000000e+00
    endloop
  endfacet
  facet normal 0.000000e+00 6.123234e-17 1.000000e+00
    outer loop
      vertex -6.376256e+01 -3.762566e+00 2.000000e+00
      vertex -5.420627e+01 -3.505661e+00 2.000000e+00
      vertex -6.412500e+01 -3.484459e+00 2.000000e+00
    endloop
  endfacet
  facet normal 0.000000e+00 6.123234e-17 1.000000e+00
    outer loop
      vertex -6.412500e+01 -3.484459e+00 2.000000e+00
      vertex -5.420627e+01 -3.505661e+00 2.000000e+00
      vertex -5.378420e+01 -3.330833e+00 2.000000e+00
    endloop
  endfacet
  facet normal 0.000000e+00 6.123234e-17 1.000000e+00
    outer loop
      vertex -6.412500e+01 -3.484459e+00 2.000000e+00
      vertex -5.378420e+01 -3.330833e+00 2.000000e+00
      vertex -6.454707e+01 -3.309631e+00 2.000000e+00
    endloop
  endfacet
  facet normal 0.000000e+00 6.123234e-17 1.000000e+00
    outer loop
      vertex -6.454707e+01 -3.309631e+00 2.000000e+00
      vertex -5.378420e+01 -3.330833e+00 2.000000e+00
      vertex -5.333127e+01 -3.271202e+00 2.000000e+00
    endloop
  endfacet
  facet normal 0.000000e+00 6.123234e-17 1.000000e+00
    outer loop
      vertex -6.454707e+01 -3.309631e+00 2.000000e+00
      vertex -5.333127e+01 -3.271202e+00 2.000000e+00
      vertex -6.500000e+01 -3.250000e+00 2.000000e+00
    endloop
  endfacet
  facet normal 0.000000e+00 6.123234e-17 1.000000e+00
    outer loop
      vertex -5.333127e+01 -3.271202e+00 2.000000e+00
      vertex 6.816873e+01 -3.271202e+00 2.000000e+00
      vertex 5.300000e+01 6.000000e+00 2.000000e+00
    endloop
  endfacet
  facet normal 0.000000e+00 6.123234e-17 1.000000e+00
    outer loop
      vertex 6.940617e+01 -3.783768e+00 2.000000e+00
      vertex 6.968428e+01 -4.146202e+00 2.000000e+00
      vertex 7.500000e+01 1.000000e+01 2.000000e+00
    endloop
  endfacet
  facet normal 0.000000e+00 6.123234e-17 1.000000e+00
    outer loop
      vertex 7.500000e+01 1.000000e+01 2.000000e+00
      vertex 6.968428e+01 -4.146202e+00 2.000000e+00
      vertex 7.500000e+01 -1.000000e+01 2.000000e+00
    endloop
  endfacet
  facet normal 0.000000e+00 6.123234e-17 1.000000e+00
    outer loop
      vertex 7.500000e+01 -1.000000e+01 2.000000e+00
      vertex 6.968428e+01 -4.146202e+00 2.000000e+00
      vertex 6.985910e+01 -4.568268e+00 2.000000e+00
    endloop
  endfacet
  facet normal 0.000000e+00 6.123234e-17 1.000000e+00
    outer loop
      vertex 7.500000e+01 -1.000000e+01 2.000000e+00
      vertex 6.985910e+01 -4.568268e+00 2.000000e+00
      vertex 6.991873e+01 -5.021202e+00 2.000000e+00
    endloop
  endfacet
  facet normal 0.000000e+00 6.123234e-17 1.000000e+00
    outer loop
      vertex 6.991873e+01 -5.021202e+00 2.000000e+00
      vertex 6.985910e+01 -5.474136e+00 2.000000e+00
      vertex 7.500000e+01 -1.000000e+01 2.000000e+00
    endloop
  endfacet
  facet normal 0.000000e+00 6.123234e-17 1.000000e+00
    outer loop
      vertex 7.500000e+01 -1.000000e+01 2.000000e+00
      vertex 6.985910e+01 -5.474136e+00 2.000000e+00
      vertex 6.968428e+01 -5.896202e+00 2.000000e+00
    endloop
  endfacet
  facet normal 0.000000e+00 6.123234e-17 1.000000e+00
    outer loop
      vertex 7.500000e+01 -1.000000e+01 2.000000e+00
      vertex 6.968428e+01 -5.896202e+00 2.000000e+00
      vertex 6.940617e+01 -6.258636e+00 2.000000e+00
    endloop
  endfacet
  facet normal 0.000000e+00 6.123234e-17 1.000000e+00
    outer loop
      vertex 6.940617e+01 -6.258636e+00 2.000000e+00
      vertex 6.904373e+01 -6.536751e+00 2.000000e+00
      vertex 7.500000e+01 -1.000000e+01 2.000000e+00
    endloop
  endfacet
  facet normal 0.000000e+00 6.123234e-17 1.000000e+00
    outer loop
      vertex 7.500000e+01 -1.000000e+01 2.000000e+00
      vertex 6.904373e+01 -6.536751e+00 2.000000e+00
      vertex 6.862167e+01 -6.711571e+00 2.000000e+00
    endloop
  endfacet
  facet normal 0.000000e+00 6.123234e-17 1.000000e+00
    outer loop
      vertex 7.500000e+01 -1.000000e+01 2.000000e+00
      vertex 6.862167e+01 -6.711571e+00 2.000000e+00
      vertex 6.816873e+01 -6.771202e+00 2.000000e+00
    endloop
  endfacet
  facet normal 0.000000e+00 6.123234e-17 1.000000e+00
    outer loop
      vertex 6.816873e+01 -6.771202e+00 2.000000e+00
      vertex -5.333127e+01 -6.771202e+00 2.000000e+00
      vertex 7.500000e+01 -1.000000e+01 2.000000e+00
    endloop
  endfacet
  facet normal 0.000000e+00 6.123234e-17 1.000000e+00
    outer loop
      vertex 7.500000e+01 -1.000000e+01 2.000000e+00
      vertex -5.333127e+01 -6.771202e+00 2.000000e+00
      vertex -7.500000e+01 -1.000000e+01 2.000000e+00
    endloop
  endfacet
  facet normal 0.000000e+00 -6.123234e-17 -1.000000e+00
    outer loop
      vertex -5.378420e+01 -3.330833e+00 8.162781e-16
      vertex -6.454707e+01 -3.309631e+00 8.149799e-16
      vertex -5.333127e+01 -3.271202e+00 8.126268e-16
    endloop
  endfacet
  facet normal 0.000000e+00 -6.123234e-17 -1.000000e+00
    outer loop
      vertex -5.333127e+01 -3.271202e+00 8.126268e-16
      vertex -6.454707e+01 -3.309631e+00 8.149799e-16
      vertex -6.500000e+01 -3.250000e+00 8.113285e-16
    endloop
  endfacet
  facet normal 0.000000e+00 -6.123234e-17 -1.000000e+00
    outer loop
      vertex -5.333127e+01 -3.271202e+00 8.126268e-16
      vertex -6.500000e+01 -3.250000e+00 8.113285e-16
      vertex -7.500000e+01 1.000000e+01 0.000000e+00
    endloop
  endfacet
  facet normal 0.000000e+00 -6.123234e-17 -1.000000e+00
    outer loop
      vertex -7.500000e+01 1.000000e+01 0.000000e+00
      vertex -6.500000e+01 -3.250000e+00 8.113285e-16
      vertex -6.545293e+01 -3.309631e+00 8.149799e-16
    endloop
  endfacet
  facet normal 0.000000e+00 -6.123234e-17 -1.000000e+00
    outer loop
      vertex -7.500000e+01 1.000000e+01 0.000000e+00
      vertex -6.545293e+01 -3.309631e+00 8.149799e-16
      vertex -6.587500e+01 -3.484459e+00 8.256850e-16
    endloop
  endfacet
  facet normal 0.000000e+00 -6.123234e-17 -1.000000e+00
    outer loop
      vertex -6.454707e+01 -3.309631e+00 8.149799e-16
      vertex -5.378420e+01 -3.330833e+00 8.162781e-16
      vertex -6.412500e+01 -3.484459e+00 8.256850e-16
    endloop
  endfacet
  facet normal 0.000000e+00 -6.123234e-17 -1.000000e+00
    outer loop
      vertex -6.412500e+01 -3.484459e+00 8.256850e-16
      vertex -5.378420e+01 -3.330833e+00 8.162781e-16
      vertex -5.420627e+01 -3.505661e+00 8.269832e-16
    endloop
  endfacet
  facet normal 0.000000e+00 -6.123234e-17 -1.000000e+00
    outer loop
      vertex -6.412500e+01 -3.484459e+00 8.256850e-16
      vertex -5.420627e+01 -3.505661e+00 8.269832e-16
      vertex -6.376256e+01 -3.762566e+00 8.427141e-16
    endloop
  endfacet
  facet normal 0.000000e+00 -6.123234e-17 -1.000000e+00
    outer loop
      vertex -6.376256e+01 -3.762566e+00 8.427141e-16
      vertex -5.420627e+01 -3.505661e+00 8.269832e-16
      vertex -5.456870e+01 -3.783768e+00 8.440123e-16
    endloop
  endfacet
  facet normal 0.000000e+00 -6.123234e-17 -1.000000e+00
    outer loop
      vertex -6.376256e+01 -3.762566e+00 8.427141e-16
      vertex -5.456870e+01 -3.783768e+00 8.440123e-16
      vertex -6.348446e+01 -4.125000e+00 8.649068e-16
    endloop
  endfacet
  facet normal 0.000000e+00 -6.123234e-17 -1.000000e+00
    outer loop
      vertex -6.348446e+01 -4.125000e+00 8.649068e-16
      vertex -5.456870e+01 -3.783768e+00 8.440123e-16
      vertex -5.484681e+01 -4.146202e+00 8.662051e-16
    endloop
  endfacet
  facet normal 0.000000e+00 -6.123234e-17 -1.000000e+00
    outer loop
      vertex -6.348446e+01 -4.125000e+00 8.649068e-16
      vertex -5.484681e+01 -4.146202e+00 8.662051e-16
      vertex -6.330963e+01 -4.547066e+00 8.907509e-16
    endloop
  endfacet
  facet normal 0.000000e+00 -6.123234e-17 -1.000000e+00
    outer loop
      vertex -6.330963e+01 -4.547066e+00 8.907509e-16
      vertex -5.484681e+01 -4.146202e+00 8.662051e-16
      vertex -5.502164e+01 -4.568268e+00 8.920491e-16
    endloop
  endfacet
  facet normal 0.000000e+00 -6.123234e-17 -1.000000e+00
    outer loop
      vertex -6.330963e+01 -4.547066e+00 8.907509e-16
      vertex -5.502164e+01 -4.568268e+00 8.920491e-16
      vertex -6.325000e+01 -5.000000e+00 9.184851e-16
    endloop
  endfacet
  facet normal 0.000000e+00 -6.123234e-17 -1.000000e+00
    outer loop
      vertex -6.325000e+01 -5.000000e+00 9.184851e-16
      vertex -5.502164e+01 -4.568268e+00 8.920491e-16
      vertex -5.508127e+01 -5.021202e+00 9.197834e-16
    endloop
  endfacet
  facet normal 0.000000e+00 -6.123234e-17 -1.000000e+00
    outer loop
      vertex -6.325000e+01 -5.000000e+00 9.184851e-16
      vertex -5.508127e+01 -5.021202e+00 9.197834e-16
      vertex -6.330963e+01 -5.452934e+00 9.462193e-16
    endloop
  endfacet
  facet normal 0.000000e+00 -6.123234e-17 -1.000000e+00
    outer loop
      vertex -6.330963e+01 -5.452934e+00 9.462193e-16
      vertex -5.508127e+01 -5.021202e+00 9.197834e-16
      vertex -5.502164e+01 -5.474136e+00 9.475176e-16
    endloop
  endfacet
  facet normal 0.000000e+00 -6.123234e-17 -1.000000e+00
    outer loop
      vertex -6.330963e+01 -5.452934e+00 9.462193e-16
      vertex -5.502164e+01 -5.474136e+00 9.475176e-16
      vertex -6.348446e+01 -5.875000e+00 9.720634e-16
    endloop
  endfacet
  facet normal 0.000000e+00 -6.123234e-17 -1.000000e+00
    outer loop
      vertex -6.348446e+01 -5.875000e+00 9.720634e-16
      vertex -5.502164e+01 -5.474136e+00 9.475176e-16
      vertex -5.484681e+01 -5.896202e+00 9.733617e-16
    endloop
  endfacet
  facet normal 0.000000e+00 -6.123234e-17 -1.000000e+00
    outer loop
      vertex -6.348446e+01 -5.875000e+00 9.720634e-16
      vertex -5.484681e+01 -5.896202e+00 9.733617e-16
      vertex -6.376256e+01 -6.237434e+00 9.942561e-16
    endloop
  endfacet
  facet normal 0.000000e+00 -6.123234e-17 -1.000000e+00
    outer loop
      vertex -6.376256e+01 -6.237434e+00 9.942561e-16
      vertex -5.484681e+01 -5.896202e+00 9.733617e-16
      vertex -5.456870e+01 -6.258636e+00 9.955544e-16
    endloop
  endfacet
  facet normal 0.000000e+00 -6.123234e-17 -1.000000e+00
    outer loop
      vertex -6.376256e+01 -6.237434e+00 9.942561e-16
      vertex -5.456870e+01 -6.258636e+00 9.955544e-16
      vertex -6.412500e+01 -6.515541e+00 1.011285e-15
    endloop
  endfacet
  facet normal 0.000000e+00 -6.123234e-17 -1.000000e+00
    outer loop
      vertex -6.412500e+01 -6.515541e+00 1.011285e-15
      vertex -5.456870e+01 -6.258636e+00 9.955544e-16
      vertex -5.420627e+01 -6.536751e+00 1.012584e-15
    endloop
  endfacet
  facet normal 0.000000e+00 -6.123234e-17 -1.000000e+00
    outer loop
      vertex -6.412500e+01 -6.515541e+00 1.011285e-15
      vertex -5.420627e+01 -6.536751e+00 1.012584e-15
      vertex -6.454707e+01 -6.690369e+00 1.021990e-15
    endloop
  endfacet
  facet normal 0.000000e+00 -6.123234e-17 -1.000000e+00
    outer loop
      vertex -6.454707e+01 -6.690369e+00 1.021990e-15
      vertex -5.420627e+01 -6.536751e+00 1.012584e-15
      vertex -5.378420e+01 -6.711571e+00 1.023289e-15
    endloop
  endfacet
  facet normal 0.000000e+00 -6.123234e-17 -1.000000e+00
    outer loop
      vertex -6.454707e+01 -6.690369e+00 1.021990e-15
      vertex -5.378420e+01 -6.711571e+00 1.023289e-15
      vertex -6.500000e+01 -6.750000e+00 1.025642e-15
    endloop
  endfacet
  facet normal 0.000000e+00 -6.123234e-17 -1.000000e+00
    outer loop
      vertex -6.500000e+01 -6.750000e+00 1.025642e-15
      vertex -5.378420e+01 -6.711571e+00 1.023289e-15
      vertex -5.333127e+01 -6.771202e+00 1.026940e-15
    endloop
  endfacet
  facet normal 0.000000e+00 -6.123234e-17 -1.000000e+00
    outer loop
      vertex -6.500000e+01 -6.750000e+00 1.025642e-15
      vertex -5.333127e+01 -6.771202e+00 1.026940e-15
      vertex -7.500000e+01 -1.000000e+01 1.224647e-15
    endloop
  endfacet
  facet normal 0.000000e+00 -6.123234e-17 -1.000000e+00
    outer loop
      vertex -7.500000e+01 -1.000000e+01 1.224647e-15
      vertex -5.333127e+01 -6.771202e+00 1.026940e-15
      vertex 7.500000e+01 -1.000000e+01 1.224647e-15
    endloop
  endfacet
  facet normal 0.000000e+00 -6.123234e-17 -1.000000e+00
    outer loop
      vertex 7.500000e+01 -1.000000e+01 1.224647e-15
      vertex -5.333127e+01 -6.771202e+00 1.026940e-15
      vertex 6.816873e+01 -6.771202e+00 1.026940e-15
    endloop
  endfacet
  facet normal 0.000000e+00 -6.123234e-17 -1.000000e+00
    outer loop
      vertex 7.500000e+01 -1.000000e+01 1.224647e-15
      vertex 6.816873e+01 -6.771202e+00 1.026940e-15
      vertex 6.862167e+01 -6.711571e+00 1.023289e-15
    endloop
  endfacet
  facet normal 0.000000e+00 -6.123234e-17 -1.000000e+00
    outer loop
      vertex 6.862167e+01 -6.711571e+00 1.023289e-15
      vertex 6.904373e+01 -6.536751e+00 1.012584e-15
      vertex 7.500000e+01 -1.000000e+01 1.224647e-15
    endloop
  endfacet
  facet normal 0.000000e+00 -6.123234e-17 -1.000000e+00
    outer loop
      vertex 7.500000e+01 -1.000000e+01 1.224647e-15
      vertex 6.904373e+01 -6.536751e+00 1.012584e-15
      vertex 6.940617e+01 -6.258636e+00 9.955544e-16
    endloop
  endfacet
  facet normal 0.000000e+00 -6.123234e-17 -1.000000e+00
    outer loop
      vertex 7.500000e+01 -1.000000e+01 1.224647e-15
      vertex 6.940617e+01 -6.258636e+00 9.955544e-16
      vertex 6.968428e+01 -5.896202e+00 9.733617e-16
    endloop
  endfacet
  facet normal 0.000000e+00 -6.123234e-17 -1.000000e+00
    outer loop
      vertex 6.968428e+01 -5.896202e+00 9.733617e-16
      vertex 6.985910e+01 -5.474136e+00 9.475176e-16
      vertex 7.500000e+01 -1.000000e+01 1.224647e-15
    endloop
  endfacet
  facet normal 0.000000e+00 -6.123234e-17 -1.000000e+00
    outer loop
      vertex 7.500000e+01 -1.000000e+01 1.224647e-15
      vertex 6.985910e+01 -5.474136e+00 9.475176e-16
      vertex 6.991873e+01 -5.021202e+00 9.197834e-16
    endloop
  endfacet
  facet normal 0.000000e+00 -6.123234e-17 -1.000000e+00
    outer loop
      vertex 7.500000e+01 -1.000000e+01 1.224647e-15
      vertex 6.991873e+01 -5.021202e+00 9.197834e-16
      vertex 6.985910e+01 -4.568268e+00 8.920491e-16
    endloop
  endfacet
  facet normal 0.000000e+00 -6.123234e-17 -1.000000e+00
    outer loop
      vertex 6.985910e+01 -4.568268e+00 8.920491e-16
      vertex 6.968428e+01 -4.146202e+00 8.662051e-16
      vertex 7.500000e+01 -1.000000e+01 1.224647e-15
    endloop
  endfacet
  facet normal 0.000000e+00 -6.123234e-17 -1.000000e+00
    outer loop
      vertex 7.500000e+01 -1.000000e+01 1.224647e-15
      vertex 6.968428e+01 -4.146202e+00 8.662051e-16
      vertex 7.500000e+01 1.000000e+01 0.000000e+00
    endloop
  endfacet
  facet normal 0.000000e+00 -6.123234e-17 -1.000000e+00
    outer loop
      vertex 7.500000e+01 1.000000e+01 0.000000e+00
      vertex 6.968428e+01 -4.146202e+00 8.662051e-16
      vertex 6.940617e+01 -3.783768e+00 8.440123e-16
    endloop
  endfacet
  facet normal 0.000000e+00 -6.123234e-17 -1.000000e+00
    outer loop
      vertex 7.500000e+01 1.000000e+01 0.000000e+00
      vertex 6.940617e+01 -3.783768e+00 8.440123e-16
      vertex 6.904373e+01 -3.505661e+00 8.269832e-16
    endloop
  endfacet
  facet normal 0.000000e+00 -6.123234e-17 -1.000000e+00
    outer loop
      vertex 6.904373e+01 -3.505661e+00 8.269832e-16
      vertex 6.862167e+01 -3.330833e+00 8.162781e-16
      vertex 7.500000e+01 1.000000e+01 0.000000e+00
    endloop
  endfacet
  facet normal 0.000000e+00 -6.123234e-17 -1.000000e+00
    outer loop
      vertex 7.500000e+01 1.000000e+01 0.000000e+00
      vertex 6.862167e+01 -3.330833e+00 8.162781e-16
      vertex 6.816873e+01 -3.271202e+00 8.126268e-16
    endloop
  endfacet
  facet normal 0.000000e+00 -6.123234e-17 -1.000000e+00
    outer loop
      vertex 7.500000e+01 1.000000e+01 0.000000e+00
      vertex 6.816873e+01 -3.271202e+00 8.126268e-16
      vertex -5.333127e+01 -3.271202e+00 8.126268e-16
    endloop
  endfacet
  facet normal 0.000000e+00 -6.123234e-17 -1.000000e+00
    outer loop
      vertex -6.669037e+01 -4.547066e+00 8.907509e-16
      vertex -6.675000e+01 -5.000000e+00 9.184851e-16
      vertex -7.500000e+01 -1.000000e+01 1.224647e-15
    endloop
  endfacet
  facet normal 0.000000e+00 -6.123234e-17 -1.000000e+00
    outer loop
      vertex -7.500000e+01 -1.000000e+01 1.224647e-15
      vertex -6.675000e+01 -5.000000e+00 9.184851e-16
      vertex -6.669037e+01 -5.452934e+00 9.462193e-16
    endloop
  endfacet
  facet normal 0.000000e+00 -6.123234e-17 -1.000000e+00
    outer loop
      vertex -7.500000e+01 -1.000000e+01 1.224647e-15
      vertex -6.669037e+01 -5.452934e+00 9.462193e-16
      vertex -6.651554e+01 -5.875000e+00 9.720634e-16
    endloop
  endfacet
  facet normal 0.000000e+00 -6.123234e-17 -1.000000e+00
    outer loop
      vertex -6.651554e+01 -5.875000e+00 9.720634e-16
      vertex -6.623744e+01 -6.237434e+00 9.942561e-16
      vertex -7.500000e+01 -1.000000e+01 1.224647e-15
    endloop
  endfacet
  facet normal 0.000000e+00 -6.123234e-17 -1.000000e+00
    outer loop
      vertex -7.500000e+01 -1.000000e+01 1.224647e-15
      vertex -6.623744e+01 -6.237434e+00 9.942561e-16
      vertex -6.587500e+01 -6.515541e+00 1.011285e-15
    endloop
  endfacet
  facet normal 0.000000e+00 -6.123234e-17 -1.000000e+00
    outer loop
      vertex -7.500000e+01 -1.000000e+01 1.224647e-15
      vertex -6.587500e+01 -6.515541e+00 1.011285e-15
      vertex -6.545293e+01 -6.690369e+00 1.021990e-15
    endloop
  endfacet
  facet normal 0.000000e+00 -6.123234e-17 -1.000000e+00
    outer loop
      vertex -6.545293e+01 -6.690369e+00 1.021990e-15
      vertex -6.500000e+01 -6.750000e+00 1.025642e-15
      vertex -7.500000e+01 -1.000000e+01 1.224647e-15
    endloop
  endfacet
  facet normal 0.000000e+00 -6.123234e-17 -1.000000e+00
    outer loop
      vertex -6.587500e+01 -3.484459e+00 8.256850e-16
      vertex -6.623744e+01 -3.762566e+00 8.427141e-16
      vertex -7.500000e+01 1.000000e+01 0.000000e+00
    endloop
  endfacet
  facet normal 0.000000e+00 -6.123234e-17 -1.000000e+00
    outer loop
      vertex -7.500000e+01 1.000000e+01 0.000000e+00
      vertex -6.623744e+01 -3.762566e+00 8.427141e-16
      vertex -7.500000e+01 -1.000000e+01 1.224647e-15
    endloop
  endfacet
  facet normal 0.000000e+00 -6.123234e-17 -1.000000e+00
    outer loop
      vertex -7.500000e+01 -1.000000e+01 1.224647e-15
      vertex -6.623744e+01 -3.762566e+00 8.427141e-16
      vertex -6.651554e+01 -4.125000e+00 8.649068e-16
    endloop
  endfacet
  facet normal 0.000000e+00 -6.123234e-17 -1.000000e+00
    outer loop
      vertex -7.500000e+01 -1.000000e+01 1.224647e-15
      vertex -6.651554e+01 -4.125000e+00 8.649068e-16
      vertex -6.669037e+01 -4.547066e+00 8.907509e-16
    endloop
  endfacet
  facet normal 0.000000e+00 -6.123234e-17 -1.000000e+00
    outer loop
      vertex -7.500000e+01 1.000000e+01 0.000000e+00
      vertex 7.500000e+01 1.000000e+01 0.000000e+00
      vertex -5.333127e+01 -3.271202e+00 8.126268e-16
    endloop
  endfacet
endsolid Default
